<?xml version="1.0" encoding="utf-8"?>
<svg width="15px" height="15px" viewBox="0 0 15 15" version="1.1" xmlns:xlink="http://www.w3.org/1999/xlink" xmlns="http://www.w3.org/2000/svg">
  <g id="24--basic--screenshot">
    <path d="M4.65869 13.2009L5.625 14.062L6.59131 13.2009C9.67697 10.4509 11.25 8.00823 11.25 5.72166C11.25 2.47541 8.75872 0 5.625 0C2.49128 0 0 2.47541 0 5.72166C0 8.00823 1.57303 10.4509 4.65869 13.2009ZM5.625 1.875C7.72586 1.875 9.375 3.51363 9.375 5.72166C9.375 7.28695 8.15813 9.23146 5.625 11.5473C3.09187 9.23146 1.875 7.28695 1.875 5.72166C1.875 3.51363 3.52414 1.875 5.625 1.875ZM5.625 2.8125C7.1783 2.8125 8.4375 4.0717 8.4375 5.625C8.4375 7.1783 7.1783 8.4375 5.625 8.4375C4.0717 8.4375 2.8125 7.1783 2.8125 5.625C2.8125 4.0717 4.0717 2.8125 5.625 2.8125ZM4.6875 5.625C4.6875 5.10723 5.10723 4.6875 5.625 4.6875C6.14277 4.6875 6.5625 5.10723 6.5625 5.625C6.5625 6.14277 6.14277 6.5625 5.625 6.5625C5.10723 6.5625 4.6875 6.14277 4.6875 5.625Z" transform="translate(1.875 0.9375)" id="icon" fill="#000000" fill-rule="evenodd" stroke="none" />
  </g>
</svg>