<svg width="24" height="24" viewBox="0 0 24 24" fill="none" xmlns="http://www.w3.org/2000/svg">
<path d="M23.1797 9.77344H22.5938V7.40625C22.5938 6.85055 22.1416 6.39844 21.5859 6.39844H20.0859C19.9798 6.39844 19.8774 6.41517 19.7812 6.44578V6.30469C19.7812 5.54222 19.1609 4.92188 18.3984 4.92188H16.5234C15.761 4.92188 15.1406 5.54222 15.1406 6.30469V10.4433H8.85938V6.30469C8.85938 5.54222 8.23903 4.92188 7.47656 4.92188H5.60156C4.83909 4.92188 4.21875 5.54222 4.21875 6.30469V6.44578C4.12256 6.41517 4.02023 6.39844 3.91406 6.39844H2.41406C1.85836 6.39844 1.40625 6.85055 1.40625 7.40625V7.86033C1.40625 8.05448 1.56366 8.21189 1.75781 8.21189C1.95197 8.21189 2.10938 8.05448 2.10938 7.86033V7.40625C2.10938 7.23825 2.24606 7.10156 2.41406 7.10156H3.91406C4.08206 7.10156 4.21875 7.23825 4.21875 7.40625V16.5938C4.21875 16.7618 4.08206 16.8984 3.91406 16.8984H2.41406C2.24606 16.8984 2.10938 16.7618 2.10938 16.5938V9.36464C2.10938 9.17048 1.95197 9.01308 1.75781 9.01308C1.56366 9.01308 1.40625 9.17048 1.40625 9.36464V9.77344H0.820312C0.368016 9.77344 0 10.1415 0 10.5938V13.4062C0 13.8585 0.368016 14.2266 0.820312 14.2266H1.40625V16.5938C1.40625 17.1495 1.85836 17.6016 2.41406 17.6016H3.91406C4.02023 17.6016 4.12256 17.5848 4.21875 17.5542V17.6953C4.21875 18.4578 4.83909 19.0781 5.60156 19.0781H7.47656C8.23903 19.0781 8.85938 18.4578 8.85938 17.6953V13.5567H9.37106C9.56522 13.5567 9.72262 13.3993 9.72262 13.2051C9.72262 13.011 9.56522 12.8535 9.37106 12.8535H8.85938V11.1465H15.1406V12.8535H10.8951C10.7009 12.8535 10.5435 13.011 10.5435 13.2051C10.5435 13.3993 10.7009 13.5567 10.8951 13.5567H15.1406V17.6953C15.1406 18.4578 15.761 19.0781 16.5234 19.0781H18.3984C19.1609 19.0781 19.7812 18.4578 19.7812 17.6953V17.5542C19.8774 17.5848 19.9798 17.6016 20.0859 17.6016H21.5859C22.1416 17.6016 22.5938 17.1495 22.5938 16.5938V16.119C22.5938 15.9248 22.4363 15.7674 22.2422 15.7674C22.048 15.7674 21.8906 15.9248 21.8906 16.119V16.5938C21.8906 16.7618 21.7539 16.8984 21.5859 16.8984H20.0859C19.9179 16.8984 19.7812 16.7618 19.7812 16.5938V7.40625C19.7812 7.23825 19.9179 7.10156 20.0859 7.10156H21.5859C21.7539 7.10156 21.8906 7.23825 21.8906 7.40625V14.6016C21.8906 14.7957 22.048 14.9531 22.2422 14.9531C22.4363 14.9531 22.5938 14.7957 22.5938 14.6016V14.2266H23.1797C23.632 14.2266 24 13.8585 24 13.4062V10.5938C24 10.1415 23.632 9.77344 23.1797 9.77344ZM0.820312 13.5234C0.755719 13.5234 0.703125 13.4708 0.703125 13.4062V10.5938C0.703125 10.5292 0.755719 10.4766 0.820312 10.4766H1.40625V13.5234H0.820312ZM8.15625 17.6953C8.15625 18.0701 7.85133 18.375 7.47656 18.375H5.60156C5.2268 18.375 4.92188 18.0701 4.92188 17.6953V6.30469C4.92188 5.92992 5.2268 5.625 5.60156 5.625H7.47656C7.85133 5.625 8.15625 5.92992 8.15625 6.30469V17.6953ZM19.0781 17.6953C19.0781 18.0701 18.7732 18.375 18.3984 18.375H16.5234C16.1487 18.375 15.8438 18.0701 15.8438 17.6953V6.30469C15.8438 5.92992 16.1487 5.625 16.5234 5.625H18.3984C18.7732 5.625 19.0781 5.92992 19.0781 6.30469V17.6953ZM23.2969 13.4062C23.2969 13.4708 23.2443 13.5234 23.1797 13.5234H22.5938V10.4766H23.1797C23.2443 10.4766 23.2969 10.5292 23.2969 10.5938V13.4062Z" fill="black"/>
</svg>
