<svg width="24" height="24" viewBox="0 0 24 24" fill="none" xmlns="http://www.w3.org/2000/svg">
<path d="M14.25 9C14.4571 9 14.625 8.83211 14.625 8.625C14.625 8.41789 14.4571 8.25 14.25 8.25C14.0429 8.25 13.875 8.41789 13.875 8.625C13.875 8.83211 14.0429 9 14.25 9Z" fill="black"/>
<path d="M13.5 12H12.75C12.75 12.4136 12.4136 12.75 12 12.75C11.5864 12.75 11.25 12.4136 11.25 12H10.5C10.5 12.8273 11.1727 13.5 12 13.5C12.8273 13.5 13.5 12.8273 13.5 12Z" fill="black"/>
<path d="M18.4211 17.733L14.574 16.1591C14.1495 15.9855 13.875 15.5767 13.875 15.1178V14.8485C15.0289 14.0513 15.9101 12.9263 16.4096 11.625H16.5C17.5339 11.625 18.375 10.7839 18.375 9.75V6.78713L19.0931 3.19575C19.1145 3.09038 19.125 2.98237 19.125 2.87475C19.125 2.1045 18.5993 1.44713 17.8466 1.2765C16.3594 0.940125 13.6219 0.375 12 0.375C10.3781 0.375 7.64062 0.940125 6.15338 1.2765C5.40075 1.44713 4.875 2.1045 4.875 2.87475C4.875 2.98237 4.8855 3.09037 4.90688 3.19613L5.625 6.78713V9.75C5.625 10.7839 6.46613 11.625 7.5 11.625H7.59037C8.08987 12.9266 8.97113 14.0513 10.125 14.8485V15.1178C10.125 15.5767 9.8505 15.9851 9.426 16.1588L5.57888 17.7326C3.32887 18.6536 1.875 20.8193 1.875 23.25V23.625H22.125V23.25C22.125 20.8193 20.6711 18.6536 18.4211 17.733ZM14.784 17.0554L14.3569 18.9769L12.6566 18.2486L14.1311 16.7741C14.1836 16.8015 14.2346 16.8308 14.2901 16.8533L14.784 17.0554ZM12 19.7599L13.2461 22.875H10.7539L12 19.7599ZM10.3631 21.8329L9.88837 21.3577L11.1128 19.9586L10.3631 21.8329ZM12.8873 19.9586L14.1116 21.3577L13.6369 21.8329L12.8873 19.9586ZM8.1675 7.875H7.5C7.07625 7.875 6.68925 8.02162 6.375 8.25975V7.125H11.34C10.3571 7.611 9.26663 7.875 8.1675 7.875ZM6.3075 6.375L6.0075 4.875H17.9925L17.6925 6.375H6.3075ZM5.7075 3.375H18.2925L18.1425 4.125H5.8575L5.7075 3.375ZM17.625 7.125V8.25975C17.406 8.094 17.1536 7.96987 16.875 7.91325V7.125H17.625ZM16.6553 10.8593C16.7974 10.3035 16.875 9.72487 16.875 9.13163V8.69438C17.3104 8.84962 17.625 9.26213 17.625 9.75037C17.625 10.317 17.2016 10.7828 16.6553 10.8593ZM6.31913 2.00813C7.77562 1.6785 10.4509 1.125 12 1.125C13.5491 1.125 16.2244 1.6785 17.6809 2.00813C18.0045 2.08162 18.2482 2.32162 18.3368 2.625H5.66325C5.75175 2.32162 5.9955 2.08162 6.31913 2.00813ZM6.375 9.75C6.375 9.26175 6.68962 8.84925 7.125 8.694V9.13125C7.125 9.7245 7.20263 10.3035 7.34475 10.8593C6.79838 10.7828 6.375 10.317 6.375 9.75ZM7.875 9.13163V8.625H8.1675C8.57888 8.625 8.9895 8.5905 9.39487 8.526C9.38587 8.55825 9.375 8.58975 9.375 8.625C9.375 8.832 9.543 9 9.75 9C9.957 9 10.125 8.832 10.125 8.625C10.125 8.53763 10.0905 8.46075 10.0402 8.397C11.0269 8.15475 11.964 7.72162 12.7894 7.125H16.125V9.13163C16.125 11.7653 14.4727 14.0992 12 14.9786C9.52725 14.0992 7.875 11.7653 7.875 9.13163ZM11.8815 15.7305L12 15.7703L12.1185 15.7309C12.4736 15.6124 12.8141 15.4676 13.1381 15.2989C13.1737 15.672 13.3177 16.0166 13.5465 16.2983L12 17.8447L10.4531 16.2979C10.6819 16.0162 10.8259 15.6716 10.8615 15.2985C11.1855 15.4673 11.5264 15.6124 11.8815 15.7305ZM9.71025 16.8533C9.76575 16.8304 9.81675 16.8015 9.86887 16.7741L11.3434 18.2486L9.64313 18.9769L9.216 17.0554L9.71025 16.8533ZM5.86275 18.4275L8.51175 17.3438L9.10725 20.0231L10.632 19.3695L8.862 21.3923L10.3448 22.875H6.375V20.625H5.625V22.875H2.63812C2.778 20.9044 4.0125 19.1842 5.86275 18.4275ZM18.375 22.875V20.625H17.625V22.875H13.6553L15.1384 21.3923L13.3684 19.3695L14.8931 20.0231L15.4886 17.3438L18.1376 18.4275C19.9879 19.1846 21.2224 20.9044 21.3622 22.875H18.375Z" fill="black"/>
</svg>
