<svg width="30" height="30" viewBox="0 0 30 30" fill="none" xmlns="http://www.w3.org/2000/svg">
<rect width="30" height="30" rx="15" fill="#4AAEE8"/>
<path fill-rule="evenodd" clip-rule="evenodd" d="M8.04273 8.41003C6.94561 8.41003 6.07153 9.31595 6.07153 10.4144V12.0665V18.3103C6.07153 19.4086 6.94561 20.3145 8.04273 20.3145H18.2311C18.4659 20.3145 18.6563 20.1242 18.6563 19.8894C18.6563 19.6546 18.4659 19.4642 18.2311 19.4642H8.04273C7.43214 19.4642 6.92186 18.9561 6.92186 18.3103V12.4917H23.078V16.4881C23.078 16.7229 23.2684 16.9133 23.5031 16.9133C23.7379 16.9133 23.9283 16.7229 23.9283 16.4881V12.0665V10.4144C23.9283 9.31595 23.0543 8.41003 21.9571 8.41003H8.04273ZM23.078 11.6414V10.4144C23.078 9.76848 22.5677 9.26036 21.9571 9.26036H8.04273C7.43214 9.26036 6.92186 9.76848 6.92186 10.4144V11.6414H23.078ZM19.6751 19.4641C19.6751 19.2293 19.8655 19.039 20.1003 19.039H21.3789V17.7636C21.3789 17.5288 21.5693 17.3384 21.804 17.3384C22.0388 17.3384 22.2292 17.5288 22.2292 17.7636V19.039H23.5016C23.7364 19.039 23.9268 19.2293 23.9268 19.4641C23.9268 19.6989 23.7364 19.8893 23.5016 19.8893H22.2292V21.1649C22.2292 21.3997 22.0388 21.59 21.804 21.59C21.5693 21.59 21.3789 21.3997 21.3789 21.1649V19.8893H20.1003C19.8655 19.8893 19.6751 19.6989 19.6751 19.4641Z" fill="white"/>
<path d="M6.92186 12.4917V12.2417H6.67186V12.4917H6.92186ZM23.078 12.4917H23.328V12.2417H23.078V12.4917ZM23.078 11.6414V11.8914H23.328V11.6414H23.078ZM6.92186 11.6414H6.67186V11.8914H6.92186V11.6414ZM21.3789 19.039V19.289H21.6289V19.039H21.3789ZM22.2292 19.039H21.9792V19.289H22.2292V19.039ZM22.2292 19.8893V19.6393H21.9792V19.8893H22.2292ZM21.3789 19.8893H21.6289V19.6393H21.3789V19.8893ZM6.32153 10.4144C6.32153 9.44867 7.08898 8.66003 8.04273 8.66003V8.16003C6.80225 8.16003 5.82153 9.18323 5.82153 10.4144H6.32153ZM6.32153 12.0665V10.4144H5.82153V12.0665H6.32153ZM6.32153 18.3103V12.0665H5.82153V18.3103H6.32153ZM8.04273 20.0645C7.08897 20.0645 6.32153 19.2759 6.32153 18.3103H5.82153C5.82153 19.5413 6.80225 20.5645 8.04273 20.5645V20.0645ZM18.2311 20.0645H8.04273V20.5645H18.2311V20.0645ZM18.4063 19.8894C18.4063 19.9861 18.3278 20.0645 18.2311 20.0645V20.5645C18.604 20.5645 18.9063 20.2622 18.9063 19.8894H18.4063ZM18.2311 19.7142C18.3278 19.7142 18.4063 19.7927 18.4063 19.8894H18.9063C18.9063 19.5165 18.604 19.2142 18.2311 19.2142V19.7142ZM8.04273 19.7142H18.2311V19.2142H8.04273V19.7142ZM6.67186 18.3103C6.67186 19.0897 7.28966 19.7142 8.04273 19.7142V19.2142C7.57462 19.2142 7.17186 18.8225 7.17186 18.3103H6.67186ZM6.67186 12.4917V18.3103H7.17186V12.4917H6.67186ZM23.078 12.2417H6.92186V12.7417H23.078V12.2417ZM23.328 16.4881V12.4917H22.828V16.4881H23.328ZM23.5031 16.6633C23.4064 16.6633 23.328 16.5848 23.328 16.4881H22.828C22.828 16.8609 23.1303 17.1633 23.5031 17.1633V16.6633ZM23.6783 16.4881C23.6783 16.5848 23.5998 16.6633 23.5031 16.6633V17.1633C23.876 17.1633 24.1783 16.8609 24.1783 16.4881H23.6783ZM23.6783 12.0665V16.4881H24.1783V12.0665H23.6783ZM23.6783 10.4144V12.0665H24.1783V10.4144H23.6783ZM21.9571 8.66003C22.9109 8.66003 23.6783 9.44867 23.6783 10.4144H24.1783C24.1783 9.18323 23.1976 8.16003 21.9571 8.16003V8.66003ZM8.04273 8.66003H21.9571V8.16003H8.04273V8.66003ZM22.828 10.4144V11.6414H23.328V10.4144H22.828ZM21.9571 9.51036C22.4252 9.51036 22.828 9.9021 22.828 10.4144H23.328C23.328 9.63486 22.7102 9.01036 21.9571 9.01036V9.51036ZM8.04273 9.51036H21.9571V9.01036H8.04273V9.51036ZM7.17186 10.4144C7.17186 9.9021 7.57463 9.51036 8.04273 9.51036V9.01036C7.28966 9.01036 6.67186 9.63487 6.67186 10.4144H7.17186ZM7.17186 11.6414V10.4144H6.67186V11.6414H7.17186ZM23.078 11.3914H6.92186V11.8914H23.078V11.3914ZM20.1003 18.789C19.7274 18.789 19.4251 19.0913 19.4251 19.4641H19.9251C19.9251 19.3674 20.0036 19.289 20.1003 19.289V18.789ZM21.3789 18.789H20.1003V19.289H21.3789V18.789ZM21.6289 19.039V17.7636H21.1289V19.039H21.6289ZM21.6289 17.7636C21.6289 17.6669 21.7073 17.5884 21.804 17.5884V17.0884C21.4312 17.0884 21.1289 17.3907 21.1289 17.7636H21.6289ZM21.804 17.5884C21.9008 17.5884 21.9792 17.6669 21.9792 17.7636H22.4792C22.4792 17.3907 22.1769 17.0884 21.804 17.0884V17.5884ZM21.9792 17.7636V19.039H22.4792V17.7636H21.9792ZM23.5016 18.789H22.2292V19.289H23.5016V18.789ZM24.1768 19.4641C24.1768 19.0913 23.8745 18.789 23.5016 18.789V19.289C23.5983 19.289 23.6768 19.3674 23.6768 19.4641H24.1768ZM23.5016 20.1393C23.8745 20.1393 24.1768 19.8369 24.1768 19.4641H23.6768C23.6768 19.5608 23.5983 19.6393 23.5016 19.6393V20.1393ZM22.2292 20.1393H23.5016V19.6393H22.2292V20.1393ZM21.9792 19.8893V21.1649H22.4792V19.8893H21.9792ZM21.9792 21.1649C21.9792 21.2616 21.9008 21.34 21.804 21.34V21.84C22.1769 21.84 22.4792 21.5378 22.4792 21.1649H21.9792ZM21.804 21.34C21.7073 21.34 21.6289 21.2616 21.6289 21.1649H21.1289C21.1289 21.5378 21.4312 21.84 21.804 21.84V21.34ZM21.6289 21.1649V19.8893H21.1289V21.1649H21.6289ZM20.1003 20.1393H21.3789V19.6393H20.1003V20.1393ZM19.4251 19.4641C19.4251 19.8369 19.7274 20.1393 20.1003 20.1393V19.6393C20.0036 19.6393 19.9251 19.5608 19.9251 19.4641H19.4251Z" fill="white"/>
</svg>
