<svg width="24" height="24" viewBox="0 0 24 24" fill="none" xmlns="http://www.w3.org/2000/svg">
<g clip-path="url(#clip0)">
<mask id="path-1-inside-1" fill="white">
<path fill-rule="evenodd" clip-rule="evenodd" d="M1.5 24C0.673 24 0 23.327 0 22.5V9.02202C0 8.53102 0.24 8.07102 0.643 7.79102L11.714 0.089006C11.886 -0.0299942 12.113 -0.0299942 12.285 0.089006L23.356 7.79102C23.76 8.07202 24 8.53202 24 9.02202V22.5C24 23.327 23.327 24 22.5 24H1.5ZM12 1.10901L1.214 8.61202C1.08 8.70602 1 8.85902 1 9.02202V22.5C1 22.776 1.224 23 1.5 23H4.5V17.5C4.5 17.224 4.724 17 5 17H8V11.5C8 11.224 8.224 11 8.5 11H12H15.5C15.776 11 16 11.224 16 11.5V17H19C19.276 17 19.5 17.224 19.5 17.5V23H22.5C22.776 23 23 22.776 23 22.5V9.02202C23 8.85802 22.92 8.70502 22.786 8.61102L12 1.10901ZM11.5 12V13C11.5 13.276 11.724 13.5 12 13.5C12.276 13.5 12.5 13.276 12.5 13V12H15V17H9V12H11.5ZM12.5 23H18.5V18H16V19C16 19.276 15.776 19.5 15.5 19.5C15.224 19.5 15 19.276 15 19V18H12.5V23ZM5.5 23H11.5V18H9.00001V19C9.00001 19.276 8.776 19.5 8.5 19.5C8.224 19.5 8 19.276 8 19V18H5.5V23Z"/>
</mask>
<path fill-rule="evenodd" clip-rule="evenodd" d="M1.5 24C0.673 24 0 23.327 0 22.5V9.02202C0 8.53102 0.24 8.07102 0.643 7.79102L11.714 0.089006C11.886 -0.0299942 12.113 -0.0299942 12.285 0.089006L23.356 7.79102C23.76 8.07202 24 8.53202 24 9.02202V22.5C24 23.327 23.327 24 22.5 24H1.5ZM12 1.10901L1.214 8.61202C1.08 8.70602 1 8.85902 1 9.02202V22.5C1 22.776 1.224 23 1.5 23H4.5V17.5C4.5 17.224 4.724 17 5 17H8V11.5C8 11.224 8.224 11 8.5 11H12H15.5C15.776 11 16 11.224 16 11.5V17H19C19.276 17 19.5 17.224 19.5 17.5V23H22.5C22.776 23 23 22.776 23 22.5V9.02202C23 8.85802 22.92 8.70502 22.786 8.61102L12 1.10901ZM11.5 12V13C11.5 13.276 11.724 13.5 12 13.5C12.276 13.5 12.5 13.276 12.5 13V12H15V17H9V12H11.5ZM12.5 23H18.5V18H16V19C16 19.276 15.776 19.5 15.5 19.5C15.224 19.5 15 19.276 15 19V18H12.5V23ZM5.5 23H11.5V18H9.00001V19C9.00001 19.276 8.776 19.5 8.5 19.5C8.224 19.5 8 19.276 8 19V18H5.5V23Z" fill="black"/>
<path d="M0.643 7.79102L0.700059 7.87314L0.700109 7.8731L0.643 7.79102ZM11.714 0.089006L11.6571 0.00676932L11.6569 0.006917L11.714 0.089006ZM12.285 0.089006L12.3421 0.00691672L12.3419 0.00676959L12.285 0.089006ZM23.356 7.79102L23.2989 7.8731L23.2989 7.87311L23.356 7.79102ZM1.214 8.61202L1.15689 8.52993L1.15657 8.53015L1.214 8.61202ZM12 1.10901L12.0571 1.02691L12 0.987195L11.9429 1.02692L12 1.10901ZM4.5 23V23.1H4.6V23H4.5ZM8 17V17.1H8.1V17H8ZM16 17H15.9V17.1H16V17ZM19.5 23H19.4V23.1H19.5V23ZM22.786 8.61102L22.8434 8.52915L22.8431 8.52892L22.786 8.61102ZM11.5 12H11.6V11.9H11.5V12ZM12.5 12V11.9H12.4V12H12.5ZM15 12H15.1V11.9H15V12ZM15 17V17.1H15.1V17H15ZM9 17H8.9V17.1H9V17ZM9 12V11.9H8.9V12H9ZM18.5 23V23.1H18.6V23H18.5ZM12.5 23H12.4V23.1H12.5V23ZM18.5 18H18.6V17.9H18.5V18ZM16 18V17.9H15.9V18H16ZM15 18H15.1V17.9H15V18ZM12.5 18V17.9H12.4V18H12.5ZM11.5 23V23.1H11.6V23H11.5ZM5.5 23H5.4V23.1H5.5V23ZM11.5 18H11.6V17.9H11.5V18ZM9.00001 18V17.9H8.90001V18H9.00001ZM8 18H8.1V17.9H8V18ZM5.5 18V17.9H5.4V18H5.5ZM-0.1 22.5C-0.1 23.3823 0.617771 24.1 1.5 24.1V23.9C0.728229 23.9 0.1 23.2718 0.1 22.5H-0.1ZM-0.1 9.02202V22.5H0.1V9.02202H-0.1ZM0.585941 7.70889C0.155973 8.00763 -0.1 8.49835 -0.1 9.02202H0.1C0.1 8.56369 0.324027 8.1344 0.700059 7.87314L0.585941 7.70889ZM11.6569 0.006917L0.585891 7.70893L0.700109 7.8731L11.7711 0.171095L11.6569 0.006917ZM12.3419 0.00676959C12.1357 -0.135915 11.8633 -0.135915 11.6571 0.00676959L11.7709 0.171242C11.9087 0.075927 12.0903 0.075927 12.2281 0.171242L12.3419 0.00676959ZM23.4131 7.70893L12.3421 0.006917L12.2279 0.171095L23.2989 7.8731L23.4131 7.70893ZM24.1 9.02202C24.1 8.49926 23.844 8.0086 23.4131 7.70892L23.2989 7.87311C23.676 8.13543 23.9 8.56478 23.9 9.02202H24.1ZM24.1 22.5V9.02202H23.9V22.5H24.1ZM22.5 24.1C23.3822 24.1 24.1 23.3823 24.1 22.5H23.9C23.9 23.2718 23.2718 23.9 22.5 23.9V24.1ZM1.5 24.1H22.5V23.9H1.5V24.1ZM1.2711 8.69411L12.0571 1.1911L11.9429 1.02692L1.1569 8.52993L1.2711 8.69411ZM1.1 9.02202C1.1 8.89187 1.1639 8.76931 1.27143 8.69388L1.15657 8.53015C0.996098 8.64272 0.9 8.82616 0.9 9.02202H1.1ZM1.1 22.5V9.02202H0.9V22.5H1.1ZM1.5 22.9C1.27923 22.9 1.1 22.7208 1.1 22.5H0.9C0.9 22.8313 1.16877 23.1 1.5 23.1V22.9ZM4.5 22.9H1.5V23.1H4.5V22.9ZM4.4 17.5V23H4.6V17.5H4.4ZM5 16.9C4.66877 16.9 4.4 17.1688 4.4 17.5H4.6C4.6 17.2793 4.77923 17.1 5 17.1V16.9ZM8 16.9H5V17.1H8V16.9ZM7.9 11.5V17H8.1V11.5H7.9ZM8.5 10.9C8.16877 10.9 7.9 11.1688 7.9 11.5H8.1C8.1 11.2792 8.27923 11.1 8.5 11.1V10.9ZM12 10.9H8.5V11.1H12V10.9ZM15.5 10.9H12V11.1H15.5V10.9ZM16.1 11.5C16.1 11.1688 15.8312 10.9 15.5 10.9V11.1C15.7208 11.1 15.9 11.2792 15.9 11.5H16.1ZM16.1 17V11.5H15.9V17H16.1ZM19 16.9H16V17.1H19V16.9ZM19.6 17.5C19.6 17.1688 19.3312 16.9 19 16.9V17.1C19.2208 17.1 19.4 17.2793 19.4 17.5H19.6ZM19.6 23V17.5H19.4V23H19.6ZM22.5 22.9H19.5V23.1H22.5V22.9ZM22.9 22.5C22.9 22.7208 22.7208 22.9 22.5 22.9V23.1C22.8312 23.1 23.1 22.8313 23.1 22.5H22.9ZM22.9 9.02202V22.5H23.1V9.02202H22.9ZM22.7286 8.69288C22.836 8.76825 22.9 8.89076 22.9 9.02202H23.1C23.1 8.82527 23.004 8.64178 22.8434 8.52915L22.7286 8.69288ZM11.9429 1.1911L22.7289 8.69311L22.8431 8.52892L12.0571 1.02691L11.9429 1.1911ZM11.6 13V12H11.4V13H11.6ZM12 13.4C11.7792 13.4 11.6 13.2208 11.6 13H11.4C11.4 13.3312 11.6688 13.6 12 13.6V13.4ZM12.4 13C12.4 13.2208 12.2208 13.4 12 13.4V13.6C12.3312 13.6 12.6 13.3312 12.6 13H12.4ZM12.4 12V13H12.6V12H12.4ZM15 11.9H12.5V12.1H15V11.9ZM15.1 17V12H14.9V17H15.1ZM9 17.1H15V16.9H9V17.1ZM8.9 12V17H9.1V12H8.9ZM11.5 11.9H9V12.1H11.5V11.9ZM18.5 22.9H12.5V23.1H18.5V22.9ZM18.4 18V23H18.6V18H18.4ZM16 18.1H18.5V17.9H16V18.1ZM15.9 18V19H16.1V18H15.9ZM15.9 19C15.9 19.2208 15.7208 19.4 15.5 19.4V19.6C15.8312 19.6 16.1 19.3313 16.1 19H15.9ZM15.5 19.4C15.2792 19.4 15.1 19.2208 15.1 19H14.9C14.9 19.3313 15.1688 19.6 15.5 19.6V19.4ZM15.1 19V18H14.9V19H15.1ZM12.5 18.1H15V17.9H12.5V18.1ZM12.6 23V18H12.4V23H12.6ZM11.5 22.9H5.5V23.1H11.5V22.9ZM11.4 18V23H11.6V18H11.4ZM9.00001 18.1H11.5V17.9H9.00001V18.1ZM9.10001 19V18H8.90001V19H9.10001ZM8.5 19.6C8.83123 19.6 9.10001 19.3313 9.10001 19H8.90001C8.90001 19.2208 8.72078 19.4 8.5 19.4V19.6ZM7.9 19C7.9 19.3313 8.16877 19.6 8.5 19.6V19.4C8.27923 19.4 8.1 19.2208 8.1 19H7.9ZM7.9 18V19H8.1V18H7.9ZM5.5 18.1H8V17.9H5.5V18.1ZM5.6 23V18H5.4V23H5.6Z" fill="white" mask="url(#path-1-inside-1)"/>
</g>
<defs>
<clipPath id="clip0">
<rect width="24" height="24" fill="white"/>
</clipPath>
</defs>
</svg>
