<svg width="16" height="16" viewBox="0 0 16 16" fill="none" xmlns="http://www.w3.org/2000/svg">
<path d="M14.5796 3.60898L12.391 1.42041C11.8304 0.859863 10.9183 0.859863 10.3577 1.42041L1.82654 9.95156C1.73116 10.0469 1.66729 10.1672 1.64176 10.2996L1.02289 13.504C0.943639 13.9145 1.07288 14.336 1.36843 14.6316C1.66398 14.9272 2.08556 15.0563 2.49604 14.9771L5.70049 14.3583C5.83283 14.3327 5.95321 14.2688 6.04848 14.1735L14.5796 5.64235C15.1402 5.08181 15.1402 4.16964 14.5796 3.60898ZM2.34041 14.1716C2.19568 14.1996 2.05277 14.1558 1.94852 14.0515C1.84417 13.9472 1.80048 13.8044 1.82836 13.6596L2.31595 11.1348L4.86522 13.684L2.34041 14.1716ZM5.70156 13.3602L2.63991 10.2985L9.68328 3.25511L12.745 6.31676L5.70156 13.3602ZM13.9995 5.06226L13.325 5.73667L10.2634 2.67491L10.9378 2.0005C11.1785 1.75975 11.5702 1.75975 11.8109 2.0005L13.9995 4.18908C14.2402 4.42983 14.2402 4.82151 13.9995 5.06226Z" fill="#4AAEE8" stroke="#4AAEE8" stroke-width="0.5"/>
</svg>
