<svg width="24" height="24" viewBox="0 0 24 24" fill="none" xmlns="http://www.w3.org/2000/svg">
<g clip-path="url(#clip0)">
<path d="M20.7494 1.14782e-05H3.25181C2.63779 -0.00192549 2.04838 0.241358 1.61469 0.676207C1.18119 1.11086 0.939266 1.70086 0.942752 2.31488V23.6684C0.938491 23.7565 0.971226 23.8425 1.03302 23.9053C1.0948 23.9683 1.18003 24.0025 1.26836 23.9998H22.7329C22.821 24.0025 22.9064 23.9683 22.9682 23.9053C23.03 23.8425 23.0628 23.7565 23.0583 23.6684V2.31488C23.062 1.70086 22.8201 1.11086 22.3864 0.676207C21.9529 0.241358 21.3635 -0.00192549 20.7494 1.14782e-05ZM5.80222 23.3056V4.01651H11.6534V23.3056H5.80222ZM12.3476 23.3056V4.01651H18.1988V23.3056H12.3476ZM22.3641 23.3056H18.893V3.66631C18.8967 3.57643 18.8634 3.48888 18.801 3.4238C18.7387 3.35891 18.6525 3.3223 18.5624 3.3223H5.43865C5.34859 3.3223 5.26258 3.35891 5.20002 3.4238C5.13765 3.48888 5.10453 3.57643 5.10801 3.66631V23.3056H1.63696V2.31488C1.63328 1.88488 1.80199 1.47153 2.10552 1.16684C2.40885 0.86235 2.82181 0.69209 3.25181 0.694221H20.7494C21.1794 0.69209 21.5922 0.86235 21.8957 1.16684C22.1993 1.47153 22.368 1.88488 22.3641 2.31488V23.3056Z" fill="black"/>
<path d="M20.874 7.03858C20.7384 6.90299 20.5186 6.90299 20.383 7.03858L19.5441 7.87768C19.4085 8.01308 19.4085 8.23293 19.5441 8.36851C19.6797 8.5041 19.8993 8.5041 20.0349 8.36851L20.2815 8.12213V9.52063C20.2815 9.71239 20.4368 9.86774 20.6286 9.86774C20.8202 9.86774 20.9757 9.71239 20.9757 9.52063V8.12194L21.2221 8.36851C21.3577 8.5041 21.5773 8.5041 21.7129 8.36851C21.8485 8.23293 21.8485 8.01308 21.7129 7.87749L20.874 7.03858Z" fill="black"/>
<path d="M21.2221 12.4189L20.9755 12.6653V11.2561C20.9755 11.0643 20.8202 10.909 20.6284 10.909C20.4368 10.909 20.2813 11.0643 20.2813 11.2561V12.6653L20.0349 12.4189C19.8993 12.2833 19.6797 12.2833 19.5441 12.4189C19.4085 12.5545 19.4085 12.7741 19.5441 12.9097L20.383 13.7486C20.5186 13.8842 20.7382 13.8842 20.8738 13.7486L21.7129 12.9097C21.8483 12.7741 21.8483 12.5545 21.7129 12.4189C21.5773 12.2833 21.3575 12.2833 21.2219 12.4189H21.2221Z" fill="black"/>
</g>
<defs>
<clipPath id="clip0">
<rect width="24" height="24" fill="white"/>
</clipPath>
</defs>
</svg>
