<svg width="24" height="24" viewBox="0 0 24 24" fill="none" xmlns="http://www.w3.org/2000/svg">
<path d="M22.6583 7.10626L12.1891 0.766273C12.131 0.730841 12.0642 0.712097 11.9962 0.712097C11.9282 0.712097 11.8615 0.730841 11.8034 0.766273L1.34087 7.10626C1.28718 7.14033 1.24335 7.18788 1.21375 7.24415C1.18414 7.30043 1.16979 7.36348 1.17212 7.42702V22.913C1.17212 23.1201 1.31851 23.2969 1.5256 23.2969H3.75812C3.85767 23.2945 3.95223 23.2528 4.02105 23.1808C4.08987 23.1089 4.12734 23.0125 4.12524 22.913V12.2813H19.8752V22.913C19.8731 23.0125 19.9106 23.1089 19.9794 23.1808C20.0483 23.2528 20.1428 23.2945 20.2424 23.2969H22.4749C22.682 23.2969 22.8284 23.1201 22.8284 22.913V7.42712C22.8305 7.36345 22.8159 7.30034 22.786 7.24405C22.7562 7.18776 22.7122 7.14026 22.6583 7.10626ZM4.12524 11.5313V10.0313H19.8752V11.5313H4.12524ZM22.0784 22.5469H20.6252V9.65968C20.6236 9.55906 20.5826 9.46309 20.511 9.39234C20.4394 9.3216 20.343 9.28172 20.2424 9.28126H3.75812C3.65749 9.28172 3.56104 9.3216 3.48947 9.39234C3.41789 9.46309 3.37689 9.55906 3.37524 9.65968V22.5469H1.92212V7.63852L12.0002 1.52541L22.0784 7.63852V22.5469Z" fill="black"/>
<path d="M17.8252 16.4949L16.8341 13.8128C16.7446 13.5714 16.5838 13.3629 16.3731 13.215C16.1624 13.067 15.9118 12.9866 15.6543 12.9844H8.52251C8.26506 12.9866 8.01438 13.0671 7.80367 13.215C7.59297 13.363 7.4322 13.5715 7.34266 13.8128L6.36541 16.454L5.98038 16.8172C5.7946 16.9772 5.64569 17.1755 5.54389 17.3986C5.4421 17.6216 5.38983 17.8641 5.39069 18.1093V22.913C5.38879 23.0126 5.42645 23.109 5.49543 23.1809C5.5644 23.2529 5.65907 23.2946 5.75871 23.2969H8.26113C8.31026 23.2956 8.35866 23.2847 8.40356 23.2647C8.44846 23.2448 8.48898 23.2161 8.52279 23.1805C8.5566 23.1448 8.58304 23.1028 8.60059 23.0569C8.61814 23.011 8.62646 22.9621 8.62507 22.913V21.5625H15.3751V22.913C15.3737 22.9621 15.382 23.011 15.3995 23.0569C15.4171 23.1028 15.4435 23.1448 15.4773 23.1805C15.5112 23.2161 15.5517 23.2448 15.5966 23.2647C15.6415 23.2847 15.6899 23.2956 15.739 23.2969H18.2414C18.3411 23.2946 18.4357 23.2529 18.5047 23.1809C18.5737 23.109 18.6113 23.0126 18.6094 22.913V18.0081C18.6097 17.7791 18.5637 17.5523 18.4743 17.3414C18.3849 17.1305 18.2539 16.9399 18.0891 16.7808L17.8252 16.4949ZM8.04593 14.0812C8.08153 13.9824 8.14598 13.8965 8.23094 13.8346C8.31591 13.7728 8.41748 13.7379 8.52251 13.7344H15.6543C15.7593 13.7379 15.8609 13.7728 15.9459 13.8346C16.0308 13.8965 16.0953 13.9824 16.1309 14.0812L16.9518 16.3125H7.22491L8.04593 14.0812ZM7.87507 22.5469H6.14069V21.5625H7.87507V22.5469ZM16.1251 22.5469V21.5625H17.8594V22.5469H16.1251ZM17.8594 20.8125H6.14069V18.1093C6.13994 17.9717 6.16924 17.8356 6.22656 17.7105C6.28387 17.5854 6.36782 17.4743 6.47252 17.385C6.47683 17.3813 6.47932 17.3855 6.48349 17.3816L6.83351 17.0625H17.3143L17.5525 17.3091C17.5577 17.3147 17.5597 17.3162 17.5653 17.3215C17.6586 17.4099 17.7328 17.5163 17.7834 17.6344C17.834 17.7525 17.8598 17.8797 17.8594 18.0081V20.8125Z" fill="black"/>
<path d="M7.99167 17.9531H7.77539C7.48324 17.9531 7.20305 18.0692 6.99647 18.2758C6.78989 18.4823 6.67383 18.7625 6.67383 19.0547C6.67383 19.3468 6.78989 19.627 6.99647 19.8336C7.20305 20.0402 7.48324 20.1562 7.77539 20.1562H7.99167C8.28382 20.1562 8.56401 20.0402 8.77059 19.8336C8.97718 19.627 9.09323 19.3468 9.09323 19.0547C9.09323 18.7625 8.97718 18.4823 8.77059 18.2758C8.56401 18.0692 8.28382 17.9531 7.99167 17.9531ZM7.99167 19.4062H7.77539C7.68215 19.4062 7.59273 19.3692 7.5268 19.3033C7.46087 19.2373 7.42383 19.1479 7.42383 19.0547C7.42383 18.9614 7.46087 18.872 7.5268 18.8061C7.59273 18.7402 7.68215 18.7031 7.77539 18.7031H7.99167C8.08491 18.7031 8.17433 18.7402 8.24026 18.8061C8.30619 18.872 8.34323 18.9614 8.34323 19.0547C8.34323 19.1479 8.30619 19.2373 8.24026 19.3033C8.17433 19.3692 8.08491 19.4062 7.99167 19.4062Z" fill="black"/>
<path d="M16.2251 17.9531H16.0088C15.7166 17.9531 15.4365 18.0692 15.2299 18.2758C15.0233 18.4823 14.9072 18.7625 14.9072 19.0547C14.9072 19.3468 15.0233 19.627 15.2299 19.8336C15.4365 20.0402 15.7166 20.1562 16.0088 20.1562H16.2251C16.5172 20.1562 16.7974 20.0402 17.004 19.8336C17.2106 19.627 17.3266 19.3468 17.3266 19.0547C17.3266 18.7625 17.2106 18.4823 17.004 18.2758C16.7974 18.0692 16.5172 17.9531 16.2251 17.9531ZM16.2251 19.4062H16.0088C15.9155 19.4062 15.8261 19.3692 15.7602 19.3033C15.6943 19.2373 15.6572 19.1479 15.6572 19.0547C15.6572 18.9614 15.6943 18.872 15.7602 18.8061C15.8261 18.7402 15.9155 18.7031 16.0088 18.7031H16.2251C16.3183 18.7031 16.4077 18.7402 16.4737 18.8061C16.5396 18.872 16.5766 18.9614 16.5766 19.0547C16.5766 19.1479 16.5396 19.2373 16.4737 19.3033C16.4077 19.3692 16.3183 19.4062 16.2251 19.4062Z" fill="black"/>
<path d="M14.25 18.375C14.25 18.2755 14.2105 18.1802 14.1402 18.1098C14.0698 18.0395 13.9745 18 13.875 18H10.0781C9.97867 18 9.88329 18.0395 9.81296 18.1098C9.74263 18.1802 9.70312 18.2755 9.70312 18.375V19.7812C9.70312 19.8807 9.74263 19.9761 9.81296 20.0464C9.88329 20.1167 9.97867 20.1562 10.0781 20.1562H13.875C13.9745 20.1562 14.0698 20.1167 14.1402 20.0464C14.2105 19.9761 14.25 19.8807 14.25 19.7812V18.375ZM13.5469 19.4062H10.4531V18.75H13.5469V19.4062Z" fill="black"/>
</svg>
