<svg width="24" height="24" viewBox="0 0 24 24" fill="none" xmlns="http://www.w3.org/2000/svg">
<path d="M19.5929 14.0887C19.5069 14.0887 19.4244 14.0545 19.3635 13.9937C19.3027 13.9328 19.2686 13.8503 19.2686 13.7643V12.8011C19.2686 12.7151 19.3027 12.6326 19.3635 12.5717C19.4244 12.5109 19.5069 12.4767 19.5929 12.4767C19.6789 12.4767 19.7614 12.5109 19.8222 12.5717C19.883 12.6326 19.9172 12.7151 19.9172 12.8011V13.7643C19.9172 13.8503 19.883 13.9328 19.8222 13.9937C19.7614 14.0545 19.6789 14.0887 19.5929 14.0887Z" fill="black"/>
<path d="M9.23644 23.3514C9.15042 23.3514 9.06793 23.3172 9.00711 23.2564C8.94628 23.1956 8.91211 23.1131 8.91211 23.027V0.972984C8.91189 0.927521 8.92122 0.882518 8.93951 0.840896C8.9578 0.799273 8.98463 0.76196 9.01827 0.731378C9.05191 0.700795 9.0916 0.677628 9.13478 0.663377C9.17795 0.649127 9.22364 0.644113 9.26887 0.64866L19.6246 1.69623C19.7048 1.70429 19.7792 1.74199 19.8332 1.80197C19.8872 1.86194 19.9169 1.93987 19.9165 2.02055V7.31677C19.9165 7.40279 19.8823 7.48528 19.8215 7.5461C19.7606 7.60693 19.6781 7.64109 19.5921 7.64109C19.5061 7.64109 19.4236 7.60693 19.3628 7.5461C19.302 7.48528 19.2678 7.40279 19.2678 7.31677V2.31374L9.56076 1.33169V22.6557L19.2678 21.3406V16.0346C19.2678 15.9486 19.302 15.8661 19.3628 15.8053C19.4236 15.7445 19.5061 15.7103 19.5921 15.7103C19.6781 15.7103 19.7606 15.7445 19.8215 15.8053C19.8823 15.8661 19.9165 15.9486 19.9165 16.0346V21.6227C19.9165 21.7012 19.888 21.7769 19.8365 21.836C19.7849 21.8951 19.7136 21.9335 19.6359 21.9441L9.28022 23.3484C9.26571 23.3504 9.25108 23.3514 9.23644 23.3514Z" fill="black"/>
<path d="M19.5929 10.8551C19.5069 10.8551 19.4244 10.821 19.3635 10.7601C19.3027 10.6993 19.2686 10.6168 19.2686 10.5308V9.58702C19.2686 9.501 19.3027 9.41851 19.3635 9.35769C19.4244 9.29687 19.5069 9.2627 19.5929 9.2627C19.6789 9.2627 19.7614 9.29687 19.8222 9.35769C19.883 9.41851 19.9172 9.501 19.9172 9.58702V10.5308C19.9172 10.6168 19.883 10.6993 19.8222 10.7601C19.7614 10.821 19.6789 10.8551 19.5929 10.8551Z" fill="black"/>
<path d="M4.42979 22.1533C4.34378 22.1533 4.26128 22.1191 4.20046 22.0583C4.13964 21.9975 4.10547 21.915 4.10547 21.829V2.01079C4.10547 1.92477 4.13964 1.84228 4.20046 1.78145C4.26128 1.72063 4.34378 1.68646 4.42979 1.68646H9.23628C9.3223 1.68646 9.40479 1.72063 9.46561 1.78145C9.52643 1.84228 9.5606 1.92477 9.5606 2.01079C9.5606 2.0968 9.52643 2.1793 9.46561 2.24012C9.40479 2.30094 9.3223 2.33511 9.23628 2.33511H4.75412V21.829C4.75412 21.915 4.71995 21.9975 4.65912 22.0583C4.5983 22.1191 4.51581 22.1533 4.42979 22.1533Z" fill="black"/>
<path d="M6.26182 22.1533C6.17581 22.1533 6.09332 22.1191 6.03249 22.0583C5.97167 21.9975 5.9375 21.915 5.9375 21.829V3.9052C5.9375 3.81918 5.97167 3.73669 6.03249 3.67586C6.09332 3.61504 6.17581 3.58087 6.26182 3.58087H9.23426C9.32027 3.58087 9.40277 3.61504 9.46359 3.67586C9.52441 3.73669 9.55858 3.81918 9.55858 3.9052C9.55858 3.99121 9.52441 4.07371 9.46359 4.13453C9.40277 4.19535 9.32027 4.22952 9.23426 4.22952H6.58615V21.829C6.58615 21.915 6.55198 21.9975 6.49116 22.0583C6.43033 22.1191 6.34784 22.1533 6.26182 22.1533Z" fill="black"/>
<path d="M9.23368 22.1533H0.988387C0.902371 22.1533 0.819877 22.1191 0.759055 22.0583C0.698232 21.9975 0.664063 21.915 0.664062 21.829C0.664062 21.7429 0.698232 21.6605 0.759055 21.5996C0.819877 21.5388 0.902371 21.5046 0.988387 21.5046H9.23368C9.3197 21.5046 9.40219 21.5388 9.46302 21.5996C9.52384 21.6605 9.55801 21.7429 9.55801 21.829C9.55801 21.915 9.52384 21.9975 9.46302 22.0583C9.40219 22.1191 9.3197 22.1533 9.23368 22.1533Z" fill="black"/>
<path d="M23.0108 22.1533H18.046C17.96 22.1533 17.8775 22.1191 17.8167 22.0583C17.7558 21.9975 17.7217 21.915 17.7217 21.829C17.7217 21.7429 17.7558 21.6605 17.8167 21.5996C17.8775 21.5388 17.96 21.5046 18.046 21.5046H23.0108C23.0968 21.5046 23.1793 21.5388 23.2401 21.5996C23.3009 21.6605 23.3351 21.7429 23.3351 21.829C23.3351 21.915 23.3009 21.9975 23.2401 22.0583C23.1793 22.1191 23.0968 22.1533 23.0108 22.1533Z" fill="black"/>
<path d="M11.4875 13.1721C11.2557 13.1721 11.0291 13.1034 10.8364 12.9746C10.6436 12.8458 10.4934 12.6627 10.4047 12.4485C10.3159 12.2344 10.2927 11.9987 10.338 11.7713C10.3832 11.544 10.4948 11.3351 10.6587 11.1712C10.8227 11.0073 11.0315 10.8956 11.2589 10.8504C11.4862 10.8052 11.7219 10.8284 11.9361 10.9171C12.1503 11.0058 12.3333 11.1561 12.4621 11.3488C12.5909 11.5416 12.6597 11.7682 12.6597 12C12.6593 12.3108 12.5357 12.6087 12.316 12.8284C12.0962 13.0482 11.7983 13.1718 11.4875 13.1721ZM11.4875 11.4765C11.384 11.4765 11.2828 11.5072 11.1967 11.5648C11.1106 11.6223 11.0435 11.704 11.0039 11.7997C10.9643 11.8953 10.9539 12.0006 10.9741 12.1021C10.9943 12.2037 11.0442 12.2969 11.1174 12.3701C11.1906 12.4433 11.2839 12.4932 11.3854 12.5134C11.487 12.5336 11.5922 12.5232 11.6879 12.4836C11.7835 12.444 11.8653 12.3769 11.9228 12.2908C11.9803 12.2047 12.011 12.1035 12.011 12C12.0108 11.8612 11.9556 11.7282 11.8575 11.63C11.7594 11.5319 11.6263 11.4767 11.4875 11.4765Z" fill="black"/>
</svg>
