<svg width="30" height="30" viewBox="0 0 30 30" fill="none" xmlns="http://www.w3.org/2000/svg">
<rect width="30" height="30" rx="15" fill="#4AAEE8"/>
<path fill-rule="evenodd" clip-rule="evenodd" d="M15 24.4501C17.4902 24.4501 19.7442 23.3881 21.3737 21.672L21.3737 21.6721C21.6201 21.4126 21.8523 21.1381 22.0688 20.8501L22.0687 20.85C23.2782 19.241 24 17.209 24 15C24 9.78096 19.9706 5.55005 15 5.55005C10.0294 5.55005 6 9.78096 6 15C6 20.2191 10.0294 24.4501 15 24.4501ZM15.0002 23.3701C17.2345 23.3701 19.254 22.4049 20.7014 20.85C19.254 19.2952 17.2345 18.3301 15.0003 18.3301C12.7661 18.3301 10.7465 19.2953 9.29917 20.8502C10.7465 22.405 12.766 23.3701 15.0002 23.3701ZM15.0001 17.2501C17.4903 17.2501 19.7442 18.312 21.3737 20.028C22.377 18.6281 22.9716 16.887 22.9716 15.0001C22.9716 10.3774 19.4027 6.63006 15.0002 6.63006C10.5977 6.63006 7.02878 10.3774 7.02878 15.0001C7.02878 16.887 7.62342 18.628 8.62667 20.0279C10.2561 18.3119 12.51 17.2501 15.0001 17.2501ZM18.0006 13.65C18.0006 15.6383 16.6575 17.25 15.0006 17.25C13.3438 17.25 12.0006 15.6383 12.0006 13.65C12.0006 11.6618 13.3438 10.05 15.0006 10.05C16.6575 10.05 18.0006 11.6618 18.0006 13.65ZM16.9719 13.6501C16.9719 15.0418 16.0893 16.1701 15.0005 16.1701C13.9117 16.1701 13.029 15.0418 13.029 13.6501C13.029 12.2583 13.9117 11.1301 15.0005 11.1301C16.0893 11.1301 16.9719 12.2583 16.9719 13.6501Z" fill="#4AAEE8"/>
<path fill-rule="evenodd" clip-rule="evenodd" d="M15 24.4501C17.4902 24.4501 19.7442 23.3881 21.3737 21.672L21.3737 21.6721C21.6201 21.4126 21.8523 21.1381 22.0688 20.8501L22.0687 20.85C23.2782 19.241 24 17.209 24 15C24 9.78096 19.9706 5.55005 15 5.55005C10.0294 5.55005 6 9.78096 6 15C6 20.2191 10.0294 24.4501 15 24.4501ZM15.0002 23.3701C17.2345 23.3701 19.254 22.4049 20.7014 20.85C19.254 19.2952 17.2345 18.3301 15.0003 18.3301C12.7661 18.3301 10.7465 19.2953 9.29917 20.8502C10.7465 22.405 12.766 23.3701 15.0002 23.3701ZM15.0001 17.2501C17.4903 17.2501 19.7442 18.312 21.3737 20.028C22.377 18.6281 22.9716 16.887 22.9716 15.0001C22.9716 10.3774 19.4027 6.63006 15.0002 6.63006C10.5977 6.63006 7.02878 10.3774 7.02878 15.0001C7.02878 16.887 7.62342 18.628 8.62667 20.0279C10.2561 18.3119 12.51 17.2501 15.0001 17.2501ZM18.0006 13.65C18.0006 15.6383 16.6575 17.25 15.0006 17.25C13.3438 17.25 12.0006 15.6383 12.0006 13.65C12.0006 11.6618 13.3438 10.05 15.0006 10.05C16.6575 10.05 18.0006 11.6618 18.0006 13.65ZM16.9719 13.6501C16.9719 15.0418 16.0893 16.1701 15.0005 16.1701C13.9117 16.1701 13.029 15.0418 13.029 13.6501C13.029 12.2583 13.9117 11.1301 15.0005 11.1301C16.0893 11.1301 16.9719 12.2583 16.9719 13.6501Z" fill="white"/>
</svg>
