<svg width="21" height="21" viewBox="0 0 21 21" fill="none" xmlns="http://www.w3.org/2000/svg">
<path fill-rule="evenodd" clip-rule="evenodd" d="M8.75 15.75C4.88401 15.75 1.75 12.616 1.75 8.75C1.75 4.88401 4.88401 1.75 8.75 1.75C12.616 1.75 15.75 4.88401 15.75 8.75C15.75 10.3676 15.2013 11.8571 14.2799 13.0424L18.9937 17.7563L17.7563 18.9937L13.0424 14.2799C11.8571 15.2013 10.3676 15.75 8.75 15.75ZM14 8.75C14 11.6495 11.6495 14 8.75 14C5.8505 14 3.5 11.6495 3.5 8.75C3.5 5.8505 5.8505 3.5 8.75 3.5C11.6495 3.5 14 5.8505 14 8.75Z" fill="black"/>
</svg>
