<svg width="24" height="24" viewBox="0 0 24 24" fill="none" xmlns="http://www.w3.org/2000/svg">
<g clip-path="url(#clip0)">
<path d="M8.25 11.0625H15.75C16.0087 11.0625 16.2188 10.8527 16.2188 10.5938V7.3125C16.2188 6.53705 15.5878 5.90625 14.8125 5.90625H9.1875C8.41205 5.90625 7.78125 6.53705 7.78125 7.3125V10.5938C7.78125 10.8527 7.99109 11.0625 8.25 11.0625ZM8.71875 7.3125C8.71875 7.05396 8.92896 6.84375 9.1875 6.84375H14.8125C15.0709 6.84375 15.2812 7.05396 15.2812 7.3125V10.125H8.71875V7.3125Z" fill="black"/>
<path d="M14.8125 12.4688C14.037 12.4688 13.4062 13.0995 13.4062 13.875C13.4062 14.6503 14.037 15.2812 14.8125 15.2812C15.5878 15.2812 16.2188 14.6503 16.2188 13.875C16.2188 13.0995 15.5878 12.4688 14.8125 12.4688ZM14.8125 14.3438C14.554 14.3438 14.3438 14.1334 14.3438 13.875C14.3438 13.6165 14.554 13.4062 14.8125 13.4062C15.0709 13.4062 15.2812 13.6165 15.2812 13.875C15.2812 14.1334 15.0709 14.3438 14.8125 14.3438Z" fill="black"/>
<path d="M9.1875 12.4688C8.41205 12.4688 7.78125 13.0995 7.78125 13.875C7.78125 14.6503 8.41205 15.2812 9.1875 15.2812C9.96295 15.2812 10.5938 14.6503 10.5938 13.875C10.5938 13.0995 9.96295 12.4688 9.1875 12.4688ZM9.1875 14.3438C8.92896 14.3438 8.71875 14.1334 8.71875 13.875C8.71875 13.6165 8.92896 13.4062 9.1875 13.4062C9.44586 13.4062 9.65625 13.6165 9.65625 13.875C9.65625 14.1334 9.44586 14.3438 9.1875 14.3438Z" fill="black"/>
<path d="M12.4688 22.125C12.4688 22.3837 12.2589 22.5938 12 22.5938C11.7411 22.5938 11.5312 22.3837 11.5312 22.125C11.5312 21.8661 11.7411 21.6562 12 21.6562C12.2589 21.6562 12.4688 21.8661 12.4688 22.125Z" fill="black"/>
<path d="M12 0C5.3681 0 0 5.36682 0 12C0 16.2261 2.22803 20.1367 5.84052 22.3006L5.32764 23.3207C5.21136 23.5519 5.30457 23.8336 5.53583 23.95C5.76746 24.0665 6.04907 23.9725 6.16516 23.7416L6.74249 22.5938H9.9093C10.1682 22.5938 10.3781 22.3837 10.3781 22.125C10.3781 21.8661 10.1682 21.6562 9.9093 21.6562H7.21381L8.22729 19.6406H15.7705L16.7822 21.6562H14.0907C13.8318 21.6562 13.6219 21.8661 13.6219 22.125C13.6219 22.3837 13.8318 22.5938 14.0907 22.5938H17.2527L17.829 23.7415C17.9456 23.9736 18.2276 24.0659 18.4583 23.95C18.6896 23.8339 18.783 23.5521 18.6667 23.3209L18.1556 22.3028C21.7705 20.139 24 16.2275 24 12C24 5.3681 18.6334 0 12 0ZM8.69879 18.7031L9.47644 17.1562H14.5234L15.2997 18.7031H8.69879ZM7.78125 16.2188C7.26434 16.2188 6.84375 15.7982 6.84375 15.2812V7.78125C6.84375 5.71344 8.52594 4.03125 10.5938 4.03125H13.4062C15.4739 4.03125 17.1562 5.71344 17.1562 7.78125V15.2812C17.1562 15.7982 16.7357 16.2188 16.2188 16.2188H7.78125ZM17.7339 21.4623L16.8193 19.6406H17.625C17.8837 19.6406 18.0938 19.4306 18.0938 19.1719C18.0938 18.913 17.8837 18.7031 17.625 18.7031H16.3488L15.5722 17.1562H16.2186C17.2526 17.1562 18.0936 16.3151 18.0936 15.2812V7.78125C18.0936 5.19653 15.991 3.09375 13.4061 3.09375H10.5938C8.00903 3.09375 5.90625 5.19653 5.90625 7.78125V15.2812C5.90625 16.3151 6.74725 17.1562 7.78125 17.1562H8.42706L7.64923 18.7031H6.375C6.11609 18.7031 5.90625 18.913 5.90625 19.1719C5.90625 19.4306 6.11609 19.6406 6.375 19.6406H7.17792L6.26294 21.4605C2.96704 19.4581 0.9375 15.8727 0.9375 12C0.9375 5.88611 5.88501 0.9375 12 0.9375C18.1137 0.9375 23.0625 5.88501 23.0625 12C23.0625 15.8741 21.0311 19.4608 17.7339 21.4623Z" fill="black"/>
</g>
<defs>
<clipPath id="clip0">
<rect width="24" height="24" fill="white"/>
</clipPath>
</defs>
</svg>
