<svg width="24" height="24" viewBox="0 0 24 24" fill="none" xmlns="http://www.w3.org/2000/svg">
<g clip-path="url(#clip0)">
<path d="M14.3096 2.53176L14.1868 2.357C13.2327 0.998679 11.6602 0.15 9.9498 0.15C8.56744 0.15 7.26909 0.688849 6.29269 1.66789L6.29268 1.66789C5.31978 2.64335 4.77878 3.94227 4.76918 5.32679C4.75686 7.11715 5.89847 9.08821 8.22995 11.1906L8.30579 11.259L8.26996 11.3547C8.07117 11.8853 7.8655 12.3008 7.6756 12.5339L7.67559 12.534C7.29927 12.9958 6.71091 13.3181 6.0271 13.4527C5.51162 13.5542 4.98476 13.7803 4.53223 14.0896L4.3702 14.2003L4.30587 14.0149C4.23081 13.7986 4.02594 13.6438 3.78512 13.6438H0.701754C0.397042 13.6438 0.15 13.8908 0.15 14.1956V22.1564C0.15 22.4612 0.397041 22.7082 0.701754 22.7082H3.78503C4.08974 22.7082 4.33678 22.4612 4.33678 22.1564V22.0339V21.7888L4.55503 21.9003L5.57482 22.4214L5.58123 22.4246L5.58115 22.4248C6.14918 22.7503 6.7568 23.0193 7.38736 23.2245C8.54593 23.6014 9.57538 23.772 10.8353 23.7953C10.8357 23.7953 10.8362 23.7953 10.8366 23.7953L10.8338 23.9453L14.3096 2.53176ZM14.3096 2.53176L14.4323 2.357C15.3864 0.998679 16.9589 0.15 18.6693 0.15C20.0644 0.15 21.3732 0.69476 22.3562 1.68446C23.3292 2.66429 23.8594 3.9601 23.8499 5.33445C23.8404 6.69679 23.165 8.05489 22.1393 9.33178C21.1149 10.6069 19.7532 11.7858 18.3996 12.7871L18.2442 12.902L18.3941 13.024C18.8892 13.427 19.2085 14.066 19.2009 14.7835C19.1951 15.3392 18.9959 15.8613 18.6407 16.2615L18.5404 16.3745L18.6542 16.474C18.6811 16.4975 18.7077 16.5217 18.734 16.5465C19.2321 17.016 19.5054 17.6125 19.4996 18.1772C19.4936 18.7506 19.2773 19.301 18.8901 19.727L18.89 19.7271C18.879 19.7393 18.8678 19.7513 18.8566 19.7631L18.7603 19.8643L18.8544 19.9675C19.2174 20.3658 19.4399 20.9113 19.4336 21.5116C19.4277 22.0737 19.2207 22.6499 18.8667 23.0894C18.4726 23.5786 17.9341 23.8499 17.3912 23.85L17.3816 23.8499H17.3797H17.3744H17.3738L10.9201 23.796L10.9201 23.7959L10.9149 23.7961C10.9109 23.7962 10.9071 23.7962 10.9034 23.7963C10.8988 23.7963 10.8943 23.7963 10.8899 23.7962H10.8899L10.8403 23.7954L14.3096 2.53176ZM18.0074 22.3971L18.0074 22.3971C17.9671 22.4472 17.892 22.5315 17.791 22.6045C17.6908 22.6769 17.5533 22.7464 17.3915 22.7464L17.3857 22.7464H17.3857H17.3857H17.3857H17.3857H17.3857H17.3856H17.3856H17.3856H17.3856H17.3856H17.3856H17.3855H17.3843L17.3822 22.7464L10.9152 22.6924L10.9104 22.6924L10.9104 22.6923C10.8879 22.6914 10.8694 22.6916 10.8559 22.6919L10.8498 22.692L10.8498 22.6919C9.71086 22.6703 8.7753 22.5155 7.72889 22.1751C7.1655 21.9918 6.62309 21.7512 6.11662 21.4597C6.10856 21.4551 6.10042 21.4507 6.0922 21.4464C6.09208 21.4464 6.09195 21.4463 6.09183 21.4462L4.41872 20.5914L4.33697 20.5496V20.4578V16.1757V16.1739C4.34125 15.8133 4.60112 15.4473 4.94333 15.1606C5.29222 14.8683 5.75888 14.6303 6.24032 14.5355C7.18822 14.3489 8.00008 13.8829 8.53124 13.231C8.91425 12.7609 9.23818 11.964 9.46949 11.2633L9.4698 11.2624L9.47252 11.2543L9.4733 11.2517L9.47332 11.2517C9.51051 11.1387 9.54535 11.0286 9.57715 10.9241C9.82977 10.093 10.0435 9.14667 10.1924 8.20612L10.2126 8.0782L10.3421 8.07958L10.6855 8.08322L10.6855 8.08323C11.0135 8.08673 11.3181 8.19816 11.5427 8.37772C11.7668 8.55696 11.9197 8.81236 11.9167 9.10066L11.8756 13.0303C11.8724 13.3329 12.1136 13.5816 12.4162 13.5877C12.4162 13.5877 12.4162 13.5877 12.4162 13.5877L16.9625 13.6792L16.9627 13.6792L16.9661 13.6793H16.9677L17.165 13.6814C17.7071 13.6872 18.1038 14.1992 18.0978 14.7719C18.0947 15.0663 17.9897 15.3437 17.7966 15.55C17.6233 15.7351 17.3949 15.8421 17.1515 15.8421L17.1434 15.842L17.1367 15.842C16.8347 15.842 16.5884 16.0852 16.5851 16.3879L16.5851 16.389L16.5851 16.3942L18.0074 22.3971ZM18.0074 22.3971C18.2067 22.1497 18.3269 21.8164 18.3302 21.5C18.3361 20.9274 17.9394 20.4153 17.3973 20.4095C17.0947 20.4063 16.8517 20.16 16.8518 19.8584V19.8583L16.8519 19.853L16.8519 19.8519C16.8551 19.5493 17.1015 19.3061 17.4035 19.3061L17.4086 19.3061L17.4169 19.3062C17.6585 19.3062 17.895 19.1816 18.0738 18.9849L17.9628 18.8841M18.0074 22.3971L17.9628 18.8841M17.9628 18.8841C17.8054 19.0573 17.6068 19.1562 17.4169 19.1562L17.4035 19.1561C17.0194 19.1561 16.706 19.4654 16.7019 19.8503L16.7018 19.8583M17.9628 18.8841C18.1403 18.6887 18.2437 18.4263 18.2465 18.1642C18.2509 17.7374 17.6633 17.1012 17.1294 17.0955L16.7018 19.8583M17.9628 18.8841L18.0738 18.9849C18.2758 18.7625 18.3933 18.4649 18.3964 18.1658C18.3993 17.8937 18.2212 17.5912 17.9959 17.3659C17.7681 17.1381 17.4524 16.9489 17.131 16.9455C16.8283 16.9423 16.5852 16.696 16.5851 16.3942L17.9628 18.8841ZM16.7982 12.5722L16.75 12.5713L13.133 12.4985L12.9845 12.4955L12.9861 12.3469L13.0199 9.11225C13.0319 7.96411 12.0044 6.99376 10.6971 6.97984L9.74054 6.9696L9.73893 6.96959L9.73534 6.96957L9.73296 6.96956C9.45571 6.96956 9.22106 7.17562 9.18574 7.45124C9.18574 7.45124 9.18574 7.45125 9.18574 7.45125L9.03696 7.43219L16.7982 12.5722ZM16.7982 12.5722L16.8379 12.5449M16.7982 12.5722L16.8379 12.5449M16.8379 12.5449C18.7232 11.2507 20.1926 9.96809 21.1939 8.75236C22.1932 7.53919 22.7391 6.37716 22.7464 5.3268C22.7539 4.24881 22.3368 3.23096 21.5732 2.46207L21.4668 2.56777L21.5732 2.46207C20.7994 1.68292 19.7676 1.25351 18.6693 1.25351C16.948 1.25351 15.4053 2.34589 14.8297 3.97159C14.7517 4.19192 14.5433 4.33917 14.3096 4.33917C14.0758 4.33917 13.8675 4.19193 13.7894 3.97159L13.648 4.02166L16.8379 12.5449ZM16.7018 19.8583C16.7016 20.2422 17.0108 20.5554 17.3957 20.5595C17.8336 20.5642 18.1855 20.9855 18.1802 21.4985M16.7018 19.8583L18.1802 21.4985M18.1802 21.4985C18.1772 21.7808 18.0689 22.0816 17.8906 22.303L18.1802 21.4985ZM5.50657 22.5549C6.08365 22.8856 6.70073 23.1588 7.34096 23.3671L6.18648 1.56196C5.18564 2.56543 4.62905 3.90208 4.61918 5.32575C4.60641 7.18105 5.78751 9.19013 8.1295 11.302C7.93174 11.8299 7.73296 12.226 7.5593 12.4392C7.20945 12.8686 6.65506 13.1762 5.99813 13.3055C5.50985 13.4017 5.01418 13.6044 4.57614 13.8812C4.58078 13.8929 4.58516 13.9047 4.58929 13.9166L4.44758 13.9658L4.36293 13.8419C4.36946 13.8375 4.37601 13.833 4.38257 13.8286C4.25923 13.6278 4.03803 13.4938 3.78512 13.4938H0.701754C0.314199 13.4938 0 13.808 0 14.1956V22.1564C0 22.544 0.314199 22.8582 0.701754 22.8582H3.78503C4.15741 22.8582 4.46206 22.5681 4.48535 22.2016L4.41854 22.1675L4.42418 22.1564L4.48678 22.0339H4.63678V22.1106L5.50657 22.5549ZM3.08327 21.6047H3.23327V21.4547V14.8973V14.7473H3.08327H1.40351H1.25351V14.8973V21.4547V21.6047H1.40351H3.08327Z" fill="black" stroke="white" stroke-width="0.3"/>
</g>
<defs>
<clipPath id="clip0">
<rect width="24" height="24" fill="white"/>
</clipPath>
</defs>
</svg>
