<svg width="24" height="24" viewBox="0 0 24 24" fill="none" xmlns="http://www.w3.org/2000/svg">
<mask id="path-1-inside-1" fill="white">
<path fill-rule="evenodd" clip-rule="evenodd" d="M12 0C5.38332 0 0 5.38332 0 12C0 18.6166 5.38332 24 12 24C18.6166 24 24 18.6166 24 12C24 5.38332 18.6167 0 12 0ZM12 22.9565C5.95824 22.9565 1.04346 18.0417 1.04346 12C1.04346 5.95824 5.95824 1.04346 12 1.04346C18.0417 1.04346 22.9565 5.95824 22.9565 12C22.9565 18.0417 18.0417 22.9565 12 22.9565ZM4.69558 9.3913H6.78255C7.07055 9.3913 7.3043 9.625 7.3043 9.913C7.3043 10.201 7.07055 10.4348 6.78255 10.4348H5.21734V11.4783H5.73904C6.02704 11.4783 6.26079 11.712 6.26079 12C6.26079 12.288 6.02704 12.5217 5.73904 12.5217H5.21734V14.0869C5.21734 14.3749 4.98358 14.6087 4.69558 14.6087C4.40758 14.6087 4.17383 14.3749 4.17383 14.0869V12V9.91305C4.17383 9.62505 4.40758 9.3913 4.69558 9.3913ZM12 3.13043C14.7006 3.13043 17.2216 4.34294 18.9172 6.45598C19.0978 6.68034 19.0623 7.00904 18.8369 7.18948C18.7409 7.26671 18.6261 7.30427 18.5103 7.30427C18.3579 7.30427 18.2066 7.23751 18.1033 7.10916C16.607 5.24342 14.3823 4.17384 12 4.17384C9.61775 4.17384 7.39304 5.24342 5.89567 7.10916C5.71621 7.33455 5.38751 7.37006 5.16315 7.18952C4.93776 7.00903 4.90225 6.68034 5.08278 6.45598C6.77845 4.34294 9.29948 3.13043 12 3.13043ZM18.4112 17.3603C18.2046 17.1631 17.8727 17.1715 17.6745 17.3802C16.1771 18.9569 14.1621 19.8261 12 19.8261C9.83793 19.8261 7.82301 18.9568 6.32666 17.3802C6.12945 17.1694 5.79762 17.1631 5.58998 17.3603C5.37922 17.5586 5.37188 17.8894 5.57018 18.0981C7.26584 19.8856 9.54895 20.8696 12.0001 20.8696C14.4512 20.8696 16.7343 19.8856 18.431 18.0981C18.6293 17.8894 18.6209 17.5586 18.4112 17.3603ZM11.4782 10.9565C11.4782 11.7506 10.8834 12.409 10.1154 12.5082L11.3249 13.7176C11.5283 13.921 11.5283 14.2518 11.3249 14.4553C11.2236 14.5576 11.0901 14.6087 10.9565 14.6087C10.8229 14.6087 10.6894 14.5575 10.5871 14.4563L9.39129 13.2595V14.0869C9.39129 14.3749 9.15753 14.6087 8.86953 14.6087C8.58153 14.6087 8.34778 14.3749 8.34778 14.0869V12.0031V11.9958V9.91305C8.34778 9.62505 8.58153 9.3913 8.86953 9.3913H9.91299C10.776 9.3913 11.4782 10.0935 11.4782 10.9565ZM9.39129 10.4348V11.4783V11.4783H9.91304C10.2 11.4783 10.4348 11.2446 10.4348 10.9566C10.4348 10.6686 10.2 10.4348 9.91304 10.4348H9.39129ZM15.1303 13.5652H13.5651V12.5217H14.0869C14.3749 12.5217 14.6087 12.288 14.6087 12C14.6087 11.712 14.3749 11.4783 14.0869 11.4783H13.5651V10.4348H15.1303C15.4183 10.4348 15.6521 10.201 15.6521 9.913C15.6521 9.625 15.4183 9.3913 15.1303 9.3913H13.0434C12.7554 9.3913 12.5216 9.62505 12.5216 9.91305V14.0869C12.5216 14.3749 12.7554 14.6087 13.0434 14.6087H15.1303C15.4183 14.6087 15.6521 14.3749 15.6521 14.0869C15.6521 13.7989 15.4183 13.5652 15.1303 13.5652ZM19.3044 13.5652H17.7392V12.5217H18.2609C18.5489 12.5217 18.7826 12.288 18.7826 12C18.7826 11.712 18.5489 11.4783 18.2609 11.4783H17.7392V10.4348H19.3044C19.5924 10.4348 19.8262 10.201 19.8262 9.913C19.8262 9.625 19.5924 9.3913 19.3044 9.3913H17.2174C16.9294 9.3913 16.6957 9.62505 16.6957 9.91305V12V14.0869C16.6957 14.3749 16.9294 14.6087 17.2174 14.6087H19.3044C19.5924 14.6087 19.8262 14.3749 19.8262 14.0869C19.8262 13.7989 19.5924 13.5652 19.3044 13.5652Z"/>
</mask>
<path fill-rule="evenodd" clip-rule="evenodd" d="M12 0C5.38332 0 0 5.38332 0 12C0 18.6166 5.38332 24 12 24C18.6166 24 24 18.6166 24 12C24 5.38332 18.6167 0 12 0ZM12 22.9565C5.95824 22.9565 1.04346 18.0417 1.04346 12C1.04346 5.95824 5.95824 1.04346 12 1.04346C18.0417 1.04346 22.9565 5.95824 22.9565 12C22.9565 18.0417 18.0417 22.9565 12 22.9565ZM4.69558 9.3913H6.78255C7.07055 9.3913 7.3043 9.625 7.3043 9.913C7.3043 10.201 7.07055 10.4348 6.78255 10.4348H5.21734V11.4783H5.73904C6.02704 11.4783 6.26079 11.712 6.26079 12C6.26079 12.288 6.02704 12.5217 5.73904 12.5217H5.21734V14.0869C5.21734 14.3749 4.98358 14.6087 4.69558 14.6087C4.40758 14.6087 4.17383 14.3749 4.17383 14.0869V12V9.91305C4.17383 9.62505 4.40758 9.3913 4.69558 9.3913ZM12 3.13043C14.7006 3.13043 17.2216 4.34294 18.9172 6.45598C19.0978 6.68034 19.0623 7.00904 18.8369 7.18948C18.7409 7.26671 18.6261 7.30427 18.5103 7.30427C18.3579 7.30427 18.2066 7.23751 18.1033 7.10916C16.607 5.24342 14.3823 4.17384 12 4.17384C9.61775 4.17384 7.39304 5.24342 5.89567 7.10916C5.71621 7.33455 5.38751 7.37006 5.16315 7.18952C4.93776 7.00903 4.90225 6.68034 5.08278 6.45598C6.77845 4.34294 9.29948 3.13043 12 3.13043ZM18.4112 17.3603C18.2046 17.1631 17.8727 17.1715 17.6745 17.3802C16.1771 18.9569 14.1621 19.8261 12 19.8261C9.83793 19.8261 7.82301 18.9568 6.32666 17.3802C6.12945 17.1694 5.79762 17.1631 5.58998 17.3603C5.37922 17.5586 5.37188 17.8894 5.57018 18.0981C7.26584 19.8856 9.54895 20.8696 12.0001 20.8696C14.4512 20.8696 16.7343 19.8856 18.431 18.0981C18.6293 17.8894 18.6209 17.5586 18.4112 17.3603ZM11.4782 10.9565C11.4782 11.7506 10.8834 12.409 10.1154 12.5082L11.3249 13.7176C11.5283 13.921 11.5283 14.2518 11.3249 14.4553C11.2236 14.5576 11.0901 14.6087 10.9565 14.6087C10.8229 14.6087 10.6894 14.5575 10.5871 14.4563L9.39129 13.2595V14.0869C9.39129 14.3749 9.15753 14.6087 8.86953 14.6087C8.58153 14.6087 8.34778 14.3749 8.34778 14.0869V12.0031V11.9958V9.91305C8.34778 9.62505 8.58153 9.3913 8.86953 9.3913H9.91299C10.776 9.3913 11.4782 10.0935 11.4782 10.9565ZM9.39129 10.4348V11.4783V11.4783H9.91304C10.2 11.4783 10.4348 11.2446 10.4348 10.9566C10.4348 10.6686 10.2 10.4348 9.91304 10.4348H9.39129ZM15.1303 13.5652H13.5651V12.5217H14.0869C14.3749 12.5217 14.6087 12.288 14.6087 12C14.6087 11.712 14.3749 11.4783 14.0869 11.4783H13.5651V10.4348H15.1303C15.4183 10.4348 15.6521 10.201 15.6521 9.913C15.6521 9.625 15.4183 9.3913 15.1303 9.3913H13.0434C12.7554 9.3913 12.5216 9.62505 12.5216 9.91305V14.0869C12.5216 14.3749 12.7554 14.6087 13.0434 14.6087H15.1303C15.4183 14.6087 15.6521 14.3749 15.6521 14.0869C15.6521 13.7989 15.4183 13.5652 15.1303 13.5652ZM19.3044 13.5652H17.7392V12.5217H18.2609C18.5489 12.5217 18.7826 12.288 18.7826 12C18.7826 11.712 18.5489 11.4783 18.2609 11.4783H17.7392V10.4348H19.3044C19.5924 10.4348 19.8262 10.201 19.8262 9.913C19.8262 9.625 19.5924 9.3913 19.3044 9.3913H17.2174C16.9294 9.3913 16.6957 9.62505 16.6957 9.91305V12V14.0869C16.6957 14.3749 16.9294 14.6087 17.2174 14.6087H19.3044C19.5924 14.6087 19.8262 14.3749 19.8262 14.0869C19.8262 13.7989 19.5924 13.5652 19.3044 13.5652Z" fill="black"/>
<path d="M5.21734 10.4348V10.3348H5.11734V10.4348H5.21734ZM5.21734 11.4783H5.11734V11.5783H5.21734V11.4783ZM5.21734 12.5217V12.4217H5.11734V12.5217H5.21734ZM18.9172 6.45598L18.8393 6.51856L18.8393 6.51867L18.9172 6.45598ZM18.8369 7.18948L18.7744 7.11141L18.7742 7.11157L18.8369 7.18948ZM18.1033 7.10916L18.0253 7.17173L18.0254 7.17186L18.1033 7.10916ZM5.89567 7.10916L5.81768 7.04657L5.81744 7.04687L5.89567 7.10916ZM5.16315 7.18952L5.22584 7.11161L5.22566 7.11147L5.16315 7.18952ZM5.08278 6.45598L5.16069 6.51867L5.16078 6.51856L5.08278 6.45598ZM17.6745 17.3802L17.602 17.3113L17.602 17.3113L17.6745 17.3802ZM18.4112 17.3603L18.3421 17.4327L18.3425 17.433L18.4112 17.3603ZM6.32666 17.3802L6.25364 17.4485L6.25413 17.449L6.32666 17.3802ZM5.58998 17.3603L5.6585 17.4332L5.65885 17.4329L5.58998 17.3603ZM5.57018 18.0981L5.64272 18.0293L5.64267 18.0292L5.57018 18.0981ZM18.431 18.0981L18.3585 18.0292L18.3585 18.0293L18.431 18.0981ZM10.1154 12.5082L10.1026 12.409L9.90089 12.4351L10.0447 12.5789L10.1154 12.5082ZM11.3249 13.7176L11.3956 13.6468L11.3956 13.6468L11.3249 13.7176ZM11.3249 14.4553L11.2542 14.3846L11.2538 14.385L11.3249 14.4553ZM10.5871 14.4563L10.5164 14.527L10.5168 14.5274L10.5871 14.4563ZM9.39129 13.2595L9.46203 13.1888L9.29129 13.0179V13.2595H9.39129ZM9.39129 10.4348V10.3348H9.29129V10.4348H9.39129ZM9.39129 11.4783H9.29129V11.5783H9.39129V11.4783ZM13.5651 13.5652H13.4651V13.6652H13.5651V13.5652ZM13.5651 12.5217V12.4217H13.4651V12.5217H13.5651ZM13.5651 11.4783H13.4651V11.5783H13.5651V11.4783ZM13.5651 10.4348V10.3348H13.4651V10.4348H13.5651ZM17.7392 13.5652H17.6392V13.6652H17.7392V13.5652ZM17.7392 12.5217V12.4217H17.6392V12.5217H17.7392ZM17.7392 11.4783H17.6392V11.5783H17.7392V11.4783ZM17.7392 10.4348V10.3348H17.6392V10.4348H17.7392ZM0.1 12C0.1 5.43855 5.43855 0.1 12 0.1V-0.1C5.32809 -0.1 -0.1 5.32809 -0.1 12H0.1ZM12 23.9C5.43855 23.9 0.1 18.5614 0.1 12H-0.1C-0.1 18.6719 5.32809 24.1 12 24.1V23.9ZM23.9 12C23.9 18.5614 18.5614 23.9 12 23.9V24.1C18.6719 24.1 24.1 18.6719 24.1 12H23.9ZM12 0.1C18.5615 0.1 23.9 5.43854 23.9 12H24.1C24.1 5.32809 18.6719 -0.1 12 -0.1V0.1ZM0.943461 12C0.943461 18.0969 5.90301 23.0565 12 23.0565V22.8565C6.01347 22.8565 1.14346 17.9865 1.14346 12H0.943461ZM12 0.943461C5.90301 0.943461 0.943461 5.90301 0.943461 12H1.14346C1.14346 6.01347 6.01347 1.14346 12 1.14346V0.943461ZM23.0565 12C23.0565 5.90301 18.0969 0.943461 12 0.943461V1.14346C17.9865 1.14346 22.8565 6.01347 22.8565 12H23.0565ZM12 23.0565C18.0969 23.0565 23.0565 18.0969 23.0565 12H22.8565C22.8565 17.9865 17.9865 22.8565 12 22.8565V23.0565ZM6.78255 9.2913H4.69558V9.4913H6.78255V9.2913ZM7.4043 9.913C7.4043 9.56976 7.12576 9.2913 6.78255 9.2913V9.4913C7.01533 9.4913 7.2043 9.68024 7.2043 9.913H7.4043ZM6.78255 10.5348C7.12578 10.5348 7.4043 10.2562 7.4043 9.913H7.2043C7.2043 10.1458 7.01532 10.3348 6.78255 10.3348V10.5348ZM5.21734 10.5348H6.78255V10.3348H5.21734V10.5348ZM5.31734 11.4783V10.4348H5.11734V11.4783H5.31734ZM5.73904 11.3783H5.21734V11.5783H5.73904V11.3783ZM6.36079 12C6.36079 11.6568 6.08225 11.3783 5.73904 11.3783V11.5783C5.97182 11.5783 6.16079 11.7672 6.16079 12H6.36079ZM5.73904 12.6217C6.08227 12.6217 6.36079 12.3432 6.36079 12H6.16079C6.16079 12.2328 5.97181 12.4217 5.73904 12.4217V12.6217ZM5.21734 12.6217H5.73904V12.4217H5.21734V12.6217ZM5.31734 14.0869V12.5217H5.11734V14.0869H5.31734ZM4.69558 14.7087C5.03881 14.7087 5.31734 14.4302 5.31734 14.0869H5.11734C5.11734 14.3197 4.92835 14.5087 4.69558 14.5087V14.7087ZM4.07383 14.0869C4.07383 14.4302 4.35235 14.7087 4.69558 14.7087V14.5087C4.46281 14.5087 4.27383 14.3197 4.27383 14.0869H4.07383ZM4.07383 12V14.0869H4.27383V12H4.07383ZM4.07383 9.91305V12H4.27383V9.91305H4.07383ZM4.69558 9.2913C4.35235 9.2913 4.07383 9.56982 4.07383 9.91305H4.27383C4.27383 9.68028 4.46281 9.4913 4.69558 9.4913V9.2913ZM18.9952 6.39339C17.2807 4.2568 14.731 3.03043 12 3.03043V3.23043C14.6701 3.23043 17.1625 4.42907 18.8393 6.51856L18.9952 6.39339ZM18.8994 7.26754C19.168 7.05248 19.2103 6.66069 18.9952 6.39329L18.8393 6.51867C18.9852 6.69999 18.9565 6.96559 18.7744 7.11141L18.8994 7.26754ZM18.5103 7.40427C18.648 7.40427 18.7851 7.35948 18.8996 7.26738L18.7742 7.11157C18.6967 7.17394 18.6042 7.20427 18.5103 7.20427V7.40427ZM18.0254 7.17186C18.1484 7.3247 18.3288 7.40427 18.5103 7.40427V7.20427C18.387 7.20427 18.2648 7.15032 18.1812 7.04646L18.0254 7.17186ZM12 4.27384C14.3518 4.27384 16.5479 5.32956 18.0253 7.17173L18.1813 7.04659C16.6661 5.15729 14.4127 4.07384 12 4.07384V4.27384ZM5.97366 7.17175C7.45214 5.32955 9.64822 4.27384 12 4.27384V4.07384C9.58729 4.07384 7.33395 5.15729 5.81768 7.04657L5.97366 7.17175ZM5.10046 7.26743C5.36777 7.48253 5.75972 7.44044 5.9739 7.17145L5.81744 7.04687C5.6727 7.22866 5.40726 7.2576 5.22584 7.11161L5.10046 7.26743ZM5.00487 6.39329C4.7897 6.6607 4.83202 7.05247 5.10064 7.26758L5.22566 7.11147C5.0435 6.9656 5.0148 6.69998 5.16069 6.51867L5.00487 6.39329ZM12 3.03043C9.26902 3.03043 6.71936 4.2568 5.00479 6.39339L5.16078 6.51856C6.83755 4.42907 9.32994 3.23043 12 3.23043V3.03043ZM17.747 17.449C17.9074 17.2802 18.1758 17.2739 18.3421 17.4327L18.4802 17.288C18.2333 17.0523 17.8381 17.0628 17.602 17.3113L17.747 17.449ZM12 19.9261C14.1898 19.9261 16.2309 19.0455 17.747 17.449L17.602 17.3113C16.1233 18.8683 14.1345 19.7261 12 19.7261V19.9261ZM6.25413 17.449C7.76922 19.0454 9.81031 19.9261 12 19.9261V19.7261C9.86556 19.7261 7.8768 18.8682 6.3992 17.3113L6.25413 17.449ZM5.65885 17.4329C5.82693 17.2732 6.09502 17.279 6.25364 17.4485L6.39968 17.3118C6.16388 17.0598 5.76831 17.053 5.52112 17.2878L5.65885 17.4329ZM5.64267 18.0292C5.4822 17.8603 5.48848 17.5931 5.6585 17.4332L5.52147 17.2875C5.26996 17.5241 5.26156 17.9185 5.49768 18.167L5.64267 18.0292ZM12.0001 20.7696C9.57655 20.7696 7.31962 19.797 5.64272 18.0293L5.49763 18.1669C7.21207 19.9742 9.52136 20.9696 12.0001 20.9696V20.7696ZM18.3585 18.0293C16.6806 19.797 14.4236 20.7696 12.0001 20.7696V20.9696C14.4788 20.9696 16.7881 19.9742 18.5035 18.167L18.3585 18.0293ZM18.3425 17.433C18.5119 17.5932 18.5187 17.8606 18.3585 18.0292L18.5035 18.167C18.7398 17.9182 18.7299 17.524 18.4799 17.2877L18.3425 17.433ZM10.1282 12.6074C10.9454 12.5019 11.5782 11.8015 11.5782 10.9565H11.3782C11.3782 11.6997 10.8214 12.3162 10.1026 12.409L10.1282 12.6074ZM11.3956 13.6468L10.1862 12.4375L10.0447 12.5789L11.2542 13.7883L11.3956 13.6468ZM11.3956 14.526C11.6381 14.2835 11.6381 13.8894 11.3956 13.6468L11.2542 13.7883C11.4186 13.9527 11.4186 14.2202 11.2542 14.3846L11.3956 14.526ZM10.9565 14.7087C11.1156 14.7087 11.2751 14.6478 11.3959 14.5257L11.2538 14.385C11.1722 14.4674 11.0646 14.5087 10.9565 14.5087V14.7087ZM10.5168 14.5274C10.6383 14.6477 10.7974 14.7087 10.9565 14.7087V14.5087C10.8485 14.5087 10.7404 14.4674 10.6574 14.3853L10.5168 14.5274ZM9.32055 13.3302L10.5164 14.527L10.6579 14.3857L9.46203 13.1888L9.32055 13.3302ZM9.49129 14.0869V13.2595H9.29129V14.0869H9.49129ZM8.86953 14.7087C9.21276 14.7087 9.49129 14.4302 9.49129 14.0869H9.29129C9.29129 14.3197 9.1023 14.5087 8.86953 14.5087V14.7087ZM8.24778 14.0869C8.24778 14.4302 8.52631 14.7087 8.86953 14.7087V14.5087C8.63676 14.5087 8.44778 14.3197 8.44778 14.0869H8.24778ZM8.24778 12.0031V14.0869H8.44778V12.0031H8.24778ZM8.24778 11.9958V12.0031H8.44778V11.9958H8.24778ZM8.24778 9.91305V11.9958H8.44778V9.91305H8.24778ZM8.86953 9.2913C8.52631 9.2913 8.24778 9.56982 8.24778 9.91305H8.44778C8.44778 9.68028 8.63676 9.4913 8.86953 9.4913V9.2913ZM9.91299 9.2913H8.86953V9.4913H9.91299V9.2913ZM11.5782 10.9565C11.5782 10.0383 10.8312 9.2913 9.91299 9.2913V9.4913C10.7207 9.4913 11.3782 10.1488 11.3782 10.9565H11.5782ZM9.49129 11.4783V10.4348H9.29129V11.4783H9.49129ZM9.49129 11.4783V11.4783H9.29129V11.4783H9.49129ZM9.91304 11.3783H9.39129V11.5783H9.91304V11.3783ZM10.3348 10.9566C10.3348 11.1892 10.1449 11.3783 9.91304 11.3783V11.5783C10.2551 11.5783 10.5348 11.2999 10.5348 10.9566H10.3348ZM9.91304 10.5348C10.1449 10.5348 10.3348 10.7239 10.3348 10.9566H10.5348C10.5348 10.6132 10.2551 10.3348 9.91304 10.3348V10.5348ZM9.39129 10.5348H9.91304V10.3348H9.39129V10.5348ZM13.5651 13.6652H15.1303V13.4652H13.5651V13.6652ZM13.4651 12.5217V13.5652H13.6651V12.5217H13.4651ZM14.0869 12.4217H13.5651V12.6217H14.0869V12.4217ZM14.5087 12C14.5087 12.2328 14.3197 12.4217 14.0869 12.4217V12.6217C14.4302 12.6217 14.7087 12.3432 14.7087 12H14.5087ZM14.0869 11.5783C14.3197 11.5783 14.5087 11.7672 14.5087 12H14.7087C14.7087 11.6568 14.4301 11.3783 14.0869 11.3783V11.5783ZM13.5651 11.5783H14.0869V11.3783H13.5651V11.5783ZM13.4651 10.4348V11.4783H13.6651V10.4348H13.4651ZM15.1303 10.3348H13.5651V10.5348H15.1303V10.3348ZM15.5521 9.913C15.5521 10.1458 15.3631 10.3348 15.1303 10.3348V10.5348C15.4736 10.5348 15.7521 10.2562 15.7521 9.913H15.5521ZM15.1303 9.4913C15.3631 9.4913 15.5521 9.68024 15.5521 9.913H15.7521C15.7521 9.56976 15.4735 9.2913 15.1303 9.2913V9.4913ZM13.0434 9.4913H15.1303V9.2913H13.0434V9.4913ZM12.6216 9.91305C12.6216 9.68028 12.8106 9.4913 13.0434 9.4913V9.2913C12.7001 9.2913 12.4216 9.56982 12.4216 9.91305H12.6216ZM12.6216 14.0869V9.91305H12.4216V14.0869H12.6216ZM13.0434 14.5087C12.8106 14.5087 12.6216 14.3197 12.6216 14.0869H12.4216C12.4216 14.4302 12.7001 14.7087 13.0434 14.7087V14.5087ZM15.1303 14.5087H13.0434V14.7087H15.1303V14.5087ZM15.5521 14.0869C15.5521 14.3197 15.3631 14.5087 15.1303 14.5087V14.7087C15.4736 14.7087 15.7521 14.4302 15.7521 14.0869H15.5521ZM15.1303 13.6652C15.3631 13.6652 15.5521 13.8542 15.5521 14.0869H15.7521C15.7521 13.7437 15.4736 13.4652 15.1303 13.4652V13.6652ZM17.7392 13.6652H19.3044V13.4652H17.7392V13.6652ZM17.6392 12.5217V13.5652H17.8392V12.5217H17.6392ZM17.7392 12.6217H18.2609V12.4217H17.7392V12.6217ZM18.2609 12.6217C18.6041 12.6217 18.8827 12.3432 18.8827 12H18.6826C18.6826 12.2328 18.4937 12.4217 18.2609 12.4217V12.6217ZM18.8827 12C18.8827 11.6568 18.6041 11.3783 18.2609 11.3783V11.5783C18.4937 11.5783 18.6826 11.7672 18.6826 12H18.8827ZM18.2609 11.3783H17.7392V11.5783H18.2609V11.3783ZM17.6392 10.4348V11.4783H17.8392V10.4348H17.6392ZM19.3044 10.3348H17.7392V10.5348H19.3044V10.3348ZM19.7262 9.913C19.7262 10.1458 19.5372 10.3348 19.3044 10.3348V10.5348C19.6476 10.5348 19.9262 10.2562 19.9262 9.913H19.7262ZM19.3044 9.4913C19.5372 9.4913 19.7262 9.68024 19.7262 9.913H19.9262C19.9262 9.56976 19.6476 9.2913 19.3044 9.2913V9.4913ZM17.2174 9.4913H19.3044V9.2913H17.2174V9.4913ZM16.7957 9.91305C16.7957 9.68028 16.9847 9.4913 17.2174 9.4913V9.2913C16.8742 9.2913 16.5957 9.56982 16.5957 9.91305H16.7957ZM16.7957 12V9.91305H16.5957V12H16.7957ZM16.7957 14.0869V12H16.5957V14.0869H16.7957ZM17.2174 14.5087C16.9847 14.5087 16.7957 14.3197 16.7957 14.0869H16.5957C16.5957 14.4302 16.8742 14.7087 17.2174 14.7087V14.5087ZM19.3044 14.5087H17.2174V14.7087H19.3044V14.5087ZM19.7262 14.0869C19.7262 14.3197 19.5372 14.5087 19.3044 14.5087V14.7087C19.6476 14.7087 19.9262 14.4302 19.9262 14.0869H19.7262ZM19.3044 13.6652C19.5372 13.6652 19.7262 13.8542 19.7262 14.0869H19.9262C19.9262 13.7437 19.6476 13.4652 19.3044 13.4652V13.6652Z" fill="white" mask="url(#path-1-inside-1)"/>
</svg>
