<svg width="24" height="24" viewBox="0 0 24 24" fill="none" xmlns="http://www.w3.org/2000/svg">
<path d="M21.6078 4.63367C21.9314 4.24731 22.1266 3.75 22.1266 3.20782V0H17.6779V3.20782C17.6779 3.74982 17.8729 4.24713 18.1964 4.63348C17.7549 4.836 17.3499 5.11633 17.0046 5.46167C16.2308 6.23602 15.8047 7.26508 15.8047 8.35895V14.9385C15.8047 15.5841 16.3298 16.1093 16.9753 16.1093C17.0227 16.1093 17.0696 16.1061 17.1159 16.1006V23.9531H17.8183V15.7502C18.0296 15.5308 18.1461 15.2435 18.1461 14.9385V14.0488H21.6582V14.9385C21.6582 15.2532 21.7834 15.5392 21.9861 15.7498V23.9531H22.6885V16.1006C22.7347 16.1061 22.7814 16.1093 22.829 16.1093C23.1415 16.1093 23.4354 15.9875 23.6566 15.7661C23.878 15.5449 23.9998 15.251 23.9998 14.9385V8.35895C23.9998 6.7489 23.0408 5.29266 21.6078 4.63367ZM18.3802 0.702393H21.4242V1.68585H18.3802V0.702393ZM18.3802 2.38824H21.4242V3.20782C21.4242 4.047 20.7414 4.7298 19.9022 4.7298C19.063 4.7298 18.3802 4.047 18.3802 3.20782V2.38824ZM17.4437 14.9385C17.4437 15.0634 17.3948 15.1809 17.3063 15.2693C17.2177 15.358 17.1002 15.4069 16.9753 15.4069C16.7171 15.4069 16.5071 15.1968 16.5071 14.9385V14.0488H17.4437V14.9385ZM17.4437 13.3464H16.5071V12.5971H17.4437V13.3464ZM23.2974 14.9385C23.2974 15.0634 23.2485 15.1809 23.1599 15.2693C23.0714 15.358 22.9539 15.4069 22.829 15.4069C22.5708 15.4069 22.3608 15.1968 22.3608 14.9385V14.0488H23.2974V14.9385ZM23.2974 13.3464H22.3608V12.5971H23.2974V13.3464ZM23.2974 11.8947H22.3608V8.07806H21.6582V13.3464H18.1461V8.07806H17.4437V11.8947H16.5071V8.35895C16.5071 7.45258 16.8603 6.59985 17.5013 5.95825C17.8694 5.59021 18.3191 5.31097 18.8094 5.14417C19.1324 5.32709 19.5052 5.43219 19.9022 5.43219C20.2994 5.43219 20.6722 5.32709 20.9954 5.14398C22.358 5.60724 23.2974 6.90802 23.2974 8.35895V11.8947Z" fill="black"/>
<path d="M19.5508 15.4303H20.2532V23.9531H19.5508V15.4303Z" fill="black"/>
<path d="M11.2004 13.5802C10.8631 13.3043 10.4247 13.1955 9.99756 13.2818L7.33521 13.8195C6.789 13.9298 6.39258 14.4144 6.39258 14.9716C6.39258 15.6198 6.91974 16.1472 7.56793 16.1472H10.2839C11.0819 16.1472 11.731 15.4981 11.731 14.7001C11.731 14.2643 11.5377 13.8562 11.2004 13.5802ZM10.2841 15.4446H7.56793C7.30719 15.4446 7.09497 15.2326 7.09497 14.9716C7.09497 14.7475 7.25446 14.5525 7.47437 14.5082L10.1367 13.9702C10.1862 13.9603 10.2358 13.9554 10.2852 13.9554C10.4553 13.9554 10.621 14.0138 10.7556 14.1239C10.9292 14.2659 11.0286 14.476 11.0286 14.7003C11.0286 15.1106 10.6946 15.4446 10.2841 15.4446Z" fill="black"/>
<path d="M0 14.0643H5.15131V14.7667H0V14.0643Z" fill="black"/>
<path d="M0 15.5473H5.15131V16.2497H0V15.5473Z" fill="black"/>
<path d="M0 16.999H5.15131V17.7015H0V16.999Z" fill="black"/>
<path d="M13.0186 7.67999H10.4464L8.43054 4.63605H0V5.33862H8.05334L11.439 10.4509L10.0508 11.4263H0V12.1287H10.2729L11.827 11.0369L12.5737 12.1642V17.8185C12.5737 18.3995 12.1009 18.8721 11.5201 18.8721H0V19.5747H6.29846V21.5649C6.29846 22.8948 7.38043 23.9766 8.71033 23.9766C10.04 23.9766 11.122 22.8948 11.122 21.5649V19.5747H11.5201C12.4883 19.5747 13.2761 18.7868 13.2761 17.8185V11.9528L12.1522 10.2556H13.0186C13.7287 10.2556 14.3064 9.67786 14.3064 8.96777C14.3064 8.25769 13.7287 7.67999 13.0186 7.67999ZM10.4194 21.5649C10.4194 22.5073 9.65277 23.2742 8.71033 23.2742C7.7677 23.2742 7.00104 22.5073 7.00104 21.5649V19.5747H10.4194V21.5649ZM13.0186 9.55316H11.6869L10.9116 8.38239H13.0186C13.3412 8.38239 13.6038 8.64496 13.6038 8.96777C13.6038 9.29059 13.3412 9.55316 13.0186 9.55316Z" fill="black"/>
<path d="M1.36719 9.0238L2.82416 7.56683L3.32092 8.0636L1.86395 9.52057L1.36719 9.0238Z" fill="black"/>
<path d="M3.32031 7.07007L3.81708 6.5733L4.31384 7.07007L3.81708 7.56683L3.32031 7.07007Z" fill="black"/>
<path d="M3.89551 9.0238L5.35248 7.56683L5.84924 8.0636L4.39227 9.52057L3.89551 9.0238Z" fill="black"/>
<path d="M5.84961 7.07007L6.34619 6.57349L6.84296 7.07007L6.34637 7.56683L5.84961 7.07007Z" fill="black"/>
<path d="M10.6299 17.2332H11.3325V17.9355H10.6299V17.2332Z" fill="black"/>
<path d="M19.6445 7.42236H20.3469V11.4498H19.6445V7.42236Z" fill="black"/>
<path d="M19.6445 6.01758H20.3469V6.71997H19.6445V6.01758Z" fill="black"/>
</svg>
