<svg width="24" height="24" viewBox="0 0 24 24" fill="none" xmlns="http://www.w3.org/2000/svg">
<path d="M9.63095 1.69342C8.81027 1.69342 8.14258 2.36111 8.14258 3.1818C8.14258 4.00253 8.81027 4.67017 9.63095 4.67017C10.4516 4.67017 11.1193 4.00248 11.1193 3.1818C11.1194 2.36111 10.4517 1.69342 9.63095 1.69342ZM9.63095 3.96705C9.19797 3.96705 8.8457 3.61478 8.8457 3.1818C8.8457 2.74881 9.19797 2.39655 9.63095 2.39655C10.0639 2.39655 10.4162 2.74881 10.4162 3.1818C10.4162 3.61478 10.064 3.96705 9.63095 3.96705Z" fill="black"/>
<path d="M5.60556 1.69342C4.78488 1.69342 4.11719 2.36111 4.11719 3.1818C4.11719 4.00253 4.78488 4.67017 5.60556 4.67017C6.42625 4.67017 7.09394 4.00248 7.09394 3.1818C7.09394 2.36111 6.42625 1.69342 5.60556 1.69342ZM5.60556 3.96705C5.17258 3.96705 4.82031 3.61478 4.82031 3.1818C4.82031 2.74881 5.17258 2.39655 5.60556 2.39655C6.03855 2.39655 6.39081 2.74881 6.39081 3.1818C6.39081 3.61478 6.03855 3.96705 5.60556 3.96705Z" fill="black"/>
<path d="M18.5132 1.69342H14.4694C14.0275 1.69342 13.668 2.05295 13.668 2.49489V3.86875C13.668 4.31069 14.0275 4.67022 14.4694 4.67022H18.5132C18.9551 4.67022 19.3147 4.31069 19.3147 3.86875V2.49489C19.3147 2.05295 18.9551 1.69342 18.5132 1.69342ZM18.6115 3.86875C18.6115 3.92298 18.5674 3.96709 18.5132 3.96709H14.4694C14.4152 3.96709 14.3711 3.92298 14.3711 3.86875V2.49489C14.3711 2.44065 14.4152 2.39655 14.4694 2.39655H18.5132C18.5674 2.39655 18.6115 2.44065 18.6115 2.49489V3.86875Z" fill="black"/>
<path d="M12.0001 7.20172C10.5581 7.20172 9.19368 7.66667 8.05438 8.54638C7.90068 8.66502 7.87232 8.8858 7.99096 9.0395C8.10965 9.19321 8.33043 9.22157 8.48409 9.10292C9.49921 8.31913 10.715 7.90485 12.0001 7.90485C15.1756 7.90485 17.759 10.4883 17.759 13.6637C17.759 16.8392 15.1756 19.4226 12.0001 19.4226C8.82468 19.4226 6.24126 16.8391 6.24126 13.6637C6.24126 12.342 6.70045 11.0508 7.53421 10.028C7.65688 9.87744 7.63434 9.656 7.48382 9.53333C7.3333 9.41066 7.11187 9.43321 6.98919 9.58367C6.05348 10.7316 5.53809 12.1806 5.53809 13.6637C5.53809 17.2269 8.43693 20.1257 12.0001 20.1257C15.5632 20.1257 18.4621 17.2269 18.4621 13.6637C18.4621 10.1006 15.5633 7.20172 12.0001 7.20172Z" fill="black"/>
<path d="M22.2316 21.2708V2.70197C22.2316 1.21209 21.0197 0 19.5301 0H4.47005C2.98046 0 1.76855 1.21209 1.76855 2.70197V21.2985C1.76855 22.7881 2.98046 24 4.47001 24H19.5301C21.0063 24 22.2091 22.8096 22.2306 21.3383C22.2321 21.3253 22.2324 21.28 22.2316 21.2708ZM21.5285 20.9469H18.6181C18.4239 20.9469 18.2665 21.1043 18.2665 21.2985C18.2665 21.4927 18.4239 21.6501 18.6181 21.6501H21.4976C21.3309 22.5849 20.5121 23.2969 19.5301 23.2969H4.47005C3.48807 23.2969 2.66926 22.5849 2.50266 21.6501H17.2118C17.4059 21.6501 17.5633 21.4927 17.5633 21.2985C17.5633 21.1044 17.4059 20.947 17.2118 20.947H2.47173V6.36356H21.5285V20.9469ZM21.5285 5.66048H2.47168V2.70197C2.47168 1.5998 3.36816 0.703125 4.47005 0.703125H19.5301C20.632 0.703125 21.5285 1.5998 21.5285 2.70197V5.66048Z" fill="black"/>
<path d="M11.9997 8.836C9.33764 8.836 7.17188 11.0018 7.17188 13.6638C7.17192 13.898 7.18875 14.1324 7.22198 14.3602C7.22198 14.3604 7.22208 14.3605 7.22208 14.3607C7.38647 15.4978 7.956 16.5423 8.826 17.3018C9.70477 18.069 10.8319 18.4916 11.9997 18.4916C13.1675 18.4916 14.2946 18.069 15.1734 17.3018C16.0433 16.5424 16.6128 15.498 16.7773 14.3609C16.7773 14.3607 16.7774 14.3604 16.7774 14.3602C16.8107 14.1326 16.8275 13.8983 16.8275 13.6638C16.8275 11.0017 14.6618 8.836 11.9997 8.836ZM14.711 16.7722C13.9603 17.4275 12.9974 17.7885 11.9997 17.7885C11.0019 17.7885 10.0391 17.4275 9.28842 16.7722C8.59964 16.1708 8.13122 15.3609 7.95445 14.4728L8.1712 14.3253C8.53346 14.0789 9.02367 14.0787 9.38616 14.3253C9.98466 14.7326 10.7935 14.7327 11.3922 14.3253C11.7539 14.0794 12.2454 14.0792 12.6071 14.3253C13.2059 14.7327 14.0145 14.7326 14.6133 14.3252C14.9764 14.0783 15.4652 14.0781 15.8281 14.3253L16.0449 14.4728C15.8682 15.3608 15.3998 16.1708 14.711 16.7722ZM16.1244 13.6809C16.1219 13.6795 16.1192 13.6782 16.1167 13.6768C15.928 13.567 15.7217 13.4964 15.5071 13.4586C15.2385 13.4114 14.9556 13.4334 14.6954 13.5136C14.5257 13.566 14.3643 13.6441 14.2176 13.744C13.855 13.9907 13.3648 13.9903 13.0027 13.744C12.7054 13.5418 12.3586 13.4349 11.9997 13.4349C11.643 13.4349 11.2915 13.5434 10.9966 13.7439C10.6335 13.991 10.1447 13.9908 9.78169 13.7439C9.48446 13.5417 9.13763 13.4348 8.77871 13.4348C8.46722 13.4348 8.15156 13.5188 7.88264 13.6768C7.88016 13.6783 7.87753 13.6795 7.87505 13.6809C7.875 13.6752 7.875 13.6695 7.875 13.6637C7.87505 11.3894 9.72535 9.53908 11.9997 9.53908C14.2741 9.53908 16.1244 11.3894 16.1244 13.6637C16.1244 13.6695 16.1244 13.6752 16.1244 13.6809Z" fill="black"/>
</svg>
