<svg width="79" height="78" viewBox="0 0 79 78" fill="none" xmlns="http://www.w3.org/2000/svg">
<g clip-path="url(#clip0)">
<path fill-rule="evenodd" clip-rule="evenodd" d="M39.8848 10.8168L39.7745 10.8165H39.7702C38.9308 10.8165 38.2491 11.4958 38.2468 12.3359V12.3395C38.2465 13.1792 38.9259 13.8611 39.7661 13.8634L39.8766 13.8637H39.8807C40.7201 13.8637 41.4018 13.1844 41.4041 12.3444V12.3407C41.4044 11.501 40.725 10.8191 39.8848 10.8168ZM76.8838 20.2781C75.8835 16.4749 72.9327 13.4797 69.184 12.4614C65.3183 11.4085 54.5407 11.0208 46.1801 10.8811C45.3438 10.8697 44.6454 11.5377 44.6314 12.379C44.6174 13.2202 45.288 13.9137 46.1292 13.9277C57.7013 14.1212 65.6046 14.6445 68.3844 15.4015C71.0854 16.1352 73.2132 18.3007 73.9373 21.054C75.4348 26.7339 75.4531 38.8778 75.4531 38.9997C75.4531 39.1217 75.4348 51.2656 73.9372 56.9464C73.2132 59.6988 71.0854 61.8643 68.3835 62.5983C62.8004 64.1187 39.7323 64.1365 39.5 64.1365C39.2677 64.1365 16.1996 64.1186 10.6156 62.598C7.91457 61.8643 5.78679 59.6988 5.0627 56.9455C3.56516 51.2656 3.54688 39.1217 3.54688 38.9998C3.54688 38.8778 3.56516 26.7339 5.06285 21.0533C5.78679 18.3009 7.91457 16.1353 10.6165 15.4013C13.4573 14.6277 21.5943 14.1008 33.5289 13.9172C34.3701 13.9044 35.0415 13.2118 35.0287 12.3706C35.0158 11.5293 34.3211 10.8635 33.482 10.8708C24.864 11.0032 13.7627 11.3868 9.81689 12.4612C6.06725 13.4797 3.1165 16.475 2.11652 20.2774C0.518434 26.3388 0.5 38.4857 0.5 38.9998C0.5 39.514 0.518434 51.6608 2.11621 57.7214C3.1165 61.5246 6.06725 64.5198 9.81597 65.5381C15.7891 67.1647 38.5348 67.1834 39.5 67.1834C40.4652 67.1834 63.2109 67.1647 69.1831 65.5384C72.9327 64.52 75.8835 61.5246 76.8835 57.7223C78.4816 51.6608 78.5 39.514 78.5 38.9998C78.5 38.4857 78.4816 26.3388 76.8838 20.2781ZM7.8125 36.4895C7.8125 35.6481 8.49454 34.9661 9.33594 34.9661C10.1773 34.9661 10.8594 35.6481 10.8594 36.4895V48.9055C10.8594 49.7469 10.1773 50.429 9.33594 50.429C8.49454 50.429 7.8125 49.7469 7.8125 48.9055V36.4895ZM9.33594 28.0344C8.49454 28.0344 7.8125 28.7165 7.8125 29.5579V29.5759C7.8125 30.4173 8.49454 31.0993 9.33594 31.0993C10.1773 31.0993 10.8594 30.4173 10.8594 29.5759V29.5579C10.8594 28.7165 10.1773 28.0344 9.33594 28.0344ZM32.9652 26.9455L51.8559 37.9142C52.3254 38.1869 52.6144 38.6888 52.6144 39.2317C52.6144 39.7747 52.3255 40.2765 51.8559 40.5492L32.9652 51.5179C32.7288 51.6553 32.4645 51.7239 32.2002 51.7239C31.9377 51.7239 31.6753 51.6563 31.4401 51.5208C30.9679 51.2489 30.6767 50.7456 30.6767 50.2005V28.263C30.6767 27.718 30.9679 27.2145 31.4401 26.9426C31.9124 26.6707 32.4939 26.6717 32.9652 26.9455ZM48.0569 39.2317L33.7236 30.9092V47.5543L48.0569 39.2317Z" fill="#17BF46"/>
</g>
<defs>
<clipPath id="clip0">
<rect width="78" height="78" fill="white" transform="translate(0.5)"/>
</clipPath>
</defs>
</svg>
